<?xml version="1.0" encoding="utf-8"?>
<!-- Generator: Adobe Illustrator 15.0.2, SVG Export Plug-In . SVG Version: 6.00 Build 0)  -->
<!DOCTYPE svg PUBLIC "-//W3C//DTD SVG 1.1//EN" "http://www.w3.org/Graphics/SVG/1.1/DTD/svg11.dtd">
<svg version="1.1" id="artwork" xmlns="http://www.w3.org/2000/svg" xmlns:xlink="http://www.w3.org/1999/xlink" x="0px" y="0px"
	 width="40.2px" height="40px" viewBox="0 0 40.2 40" enable-background="new 0 0 40.2 40" xml:space="preserve">
<g>
	<path fill="#0978AF" d="M40.2,25.9c0-0.4-0.1-0.601-0.199-0.9V0H0v40h40V26.8C40.1,26.5,40.2,26.3,40.2,25.9z"/>
	<polygon fill="#FFFFFF" points="29.4,15.4 28.6,17.3 30.2,17.3 	"/>
	<polygon fill="#FFFFFF" points="2.1,17.3 3.6,17.3 2.8,15.4 	"/>
	<path fill="#FFFFFF" d="M20.5,16.6c0.1-0.1,0.2-0.2,0.2-0.4c0-0.2-0.1-0.3-0.2-0.4c-0.1-0.1-0.3-0.1-0.5-0.1h-1.4v1H20
		C20.1,16.7,20.3,16.7,20.5,16.6z"/>
	<path fill="#FFFFFF" d="M10.1,19.4v0.8h9.4v-1.7h0.2c0.1,0,0.2,0,0.2,0.2v1.5h4.8v-0.4c0.4,0.2,1,0.4,1.801,0.4h2l0.399-1h1
		l0.399,1h3.9v-1l0.6,1H38v-6.5H34.9v0.8L34.5,13.7h-3.201v0.8L30.9,13.7h-4.3c-0.7,0-1.4,0.1-1.9,0.4v-0.4h-3v0.4
		c-0.3-0.3-0.8-0.4-1.3-0.4H9.6l-0.7,1.7l-0.8-1.7H4.7v0.8l-0.4-0.8H1.4L0,16.8v3.4l0,0h1.9l0.4-1h1l0.4,1h3.8v-0.8l0.3,0.8h2
		L10.1,19.4z M24.9,15.2c0.399-0.4,0.899-0.5,1.7-0.5h1.1v1h-1.1c-0.4,0-0.6,0.1-0.9,0.3c-0.199,0.2-0.3,0.6-0.3,1.1
		s0.101,0.9,0.3,1.1c0.2,0.2,0.5,0.2,0.801,0.2H27l1.6-3.7h1.699l1.9,4.4v-4.4h1.7l2,3.3v-3.3H37v4.7H35.4l-2.101-3.5v3.5H31l-0.4-1
		h-2.301l-0.399,1h-1.3c-0.5,0-1.2-0.1-1.6-0.5C24.6,18.5,24.4,18,24.4,17.1C24.299,16.3,24.4,15.7,24.9,15.2z M22.6,14.6h1.1v4.7
		h-1.1V14.6z M17.4,14.6H20c0.6,0,1,0,1.4,0.2C21.799,15,22,15.3,22,15.8c0,0.7-0.5,1.1-0.801,1.2c0.2,0.1,0.5,0.3,0.6,0.4
		C22,17.6,22,17.8,22,18.3v0.9H20.9v-0.6c0-0.3,0-0.7-0.2-0.9c-0.2-0.2-0.4-0.2-0.8-0.2h-1.2v1.7h-1.1v-4.6H17.4z M12.9,14.6h3.7v1
		H14v0.8h2.6v1H14v0.9h2.6v1h-3.7V14.6z M8.3,19.3l-1.6-3.7v3.7H4.4l-0.4-1H1.7l-0.4,1H0l2-4.7h1.7L5.6,19v-4.4h1.8l1.5,3.2l1.3-3.2
		h1.9v4.7H11v-3.7l-1.6,3.7H8.3z"/>
	<g>
		<path fill="#FFFFFF" d="M20,23.7h-1.5v1.2H20c0.4,0,0.7-0.2,0.7-0.601C20.7,23.8,20.4,23.7,20,23.7z"/>
		<path fill="#FFFFFF" d="M38,23.7c-0.201,0-0.301,0-0.5,0.1C37.4,23.9,37.299,24,37.299,24.1c0,0.2,0.101,0.301,0.201,0.301
			c0.1,0,0.199,0.1,0.399,0.1H38.5c0.6,0,1,0.1,1.299,0.4C40,25,40,25,40,25v-1.3H38z"/>
		<polygon fill="#FFFFFF" points="17.4,27 17.4,23.2 15.7,25.1 		"/>
		<polygon fill="#FFFFFF" points="10.2,23.7 10.2,24.5 12.7,24.5 12.7,25.5 10.2,25.5 10.2,26.4 13,26.4 14.2,25 13,23.7 		"/>
		<path fill="#FFFFFF" d="M25.4,23.8c-0.101-0.1-0.3-0.1-0.5-0.1H23.5v1.1H24.9c0.2,0,0.399,0,0.601-0.1
			c0.1-0.101,0.199-0.3,0.199-0.5S25.6,23.8,25.4,23.8z"/>
		<path fill="#FFFFFF" d="M38.5,27.4h-2.201v-1H38.5c0.199,0,0.399,0,0.5-0.101c0.1-0.1,0.1-0.2,0.1-0.3S39,25.8,39,25.7
			C38.9,25.6,38.799,25.6,38.6,25.6c-1.1,0-2.4,0-2.4-1.5c0-0.699,0.4-1.399,1.6-1.399H40v-0.9H37.9c-0.601,0-1.101,0.2-1.399,0.4
			v-0.4H33.4c-0.5,0-1.101,0.101-1.3,0.4v-0.4h-5.5v0.4c-0.4-0.3-1.2-0.4-1.5-0.4h-3.6v0.4C21.2,21.9,20.4,21.8,19.9,21.8h-4l-0.9,1
			l-0.9-1h-6v6.5H14l1-1l0.9,1h3.7v-1.5H20c0.5,0,1.1,0,1.6-0.2V28.4h3v-1.7h0.1c0.2,0,0.2,0,0.2,0.2v1.5h9.2
			c0.6,0,1.199-0.101,1.5-0.4v0.4h2.9c0.6,0,1.199-0.101,1.6-0.301V26.9C39.7,27.2,39.2,27.4,38.5,27.4z M19.9,25.8h-1.4V27.4h-2.2
			L15,25.8L13.6,27.4H9.1v-4.7h4.5l1.4,1.5l1.4-1.5H20c0.9,0,1.9,0.2,1.9,1.5C21.9,25.6,20.9,25.8,19.9,25.8z M26.7,25.6
			c0.2,0.2,0.2,0.4,0.2,0.9v0.9h-1.101V26.8c0-0.3,0-0.7-0.199-0.899c-0.2-0.2-0.4-0.2-0.801-0.2H23.6v1.7h-1.1v-4.7H25
			c0.6,0,1,0,1.299,0.2c0.4,0.199,0.601,0.5,0.601,1c0,0.699-0.5,1.1-0.8,1.199C26.4,25.3,26.6,25.5,26.7,25.6z M31.299,23.7h-2.6
			V24.6h2.6v1h-2.6v0.9h2.6v1H27.6v-4.7h3.699V23.7z M34.1,27.4h-2.2v-1h2.2c0.199,0,0.4,0,0.5-0.101c0.1-0.1,0.1-0.2,0.1-0.3
			s-0.1-0.2-0.1-0.3C34.5,25.6,34.4,25.6,34.2,25.6c-1,0-2.4,0-2.4-1.5c0-0.699,0.4-1.399,1.601-1.399h2.2v1h-2.1
			c-0.201,0-0.301,0-0.4,0.1C33,23.9,33,24,33,24.1c0,0.2,0.1,0.301,0.199,0.301s0.2,0.1,0.4,0.1h0.6c0.6,0,1,0.1,1.301,0.4
			c0.199,0.199,0.299,0.5,0.299,1C35.9,26.9,35.299,27.4,34.1,27.4z"/>
	</g>
</g>
</svg>
