<?xml version="1.0" encoding="utf-8"?>
<!-- Generator: Adobe Illustrator 15.1.0, SVG Export Plug-In . SVG Version: 6.00 Build 0)  -->
<!DOCTYPE svg PUBLIC "-//W3C//DTD SVG 1.1//EN" "http://www.w3.org/Graphics/SVG/1.1/DTD/svg11.dtd">
<svg version="1.1" id="artwork" xmlns="http://www.w3.org/2000/svg" xmlns:xlink="http://www.w3.org/1999/xlink" x="0px" y="0px"
	 width="35px" height="35px" viewBox="0 0 35 35" enable-background="new 0 0 35 35" xml:space="preserve">
<circle fill="#B36B16" cx="17.5" cy="17.5" r="17.5"/>
<path fill-rule="evenodd" clip-rule="evenodd" fill="#F7931E" d="M15.2,20l-2.6,7.2c-0.3,0.7,0.1,1.6,0.9,1.8
	c0.7,0.3,1.6-0.1,1.8-0.9l2.1-5.8L15.2,20L15.2,20z M19.4,5.8c-1.2,0-2.3,1-2.3,2.3s1,2.3,2.3,2.3c1.2,0,2.3-1,2.3-2.3
	S20.7,5.8,19.4,5.8L19.4,5.8z M19,18.7L21,21c0.2,0.3,0.4,0.6,0.4,0.9l0.2,5.7c0,0.8-0.6,1.5-1.4,1.5c-0.8,0-1.5-0.6-1.5-1.4
	l-0.2-5.2L16,19.7c-0.7-0.6-1-1.4-0.8-2.3l0.6-3.4l-1.5,0.7l-0.7,2.8c-0.1,0.6-0.7,0.9-1.3,0.8c-0.6-0.1-0.9-0.7-0.8-1.3l0.8-3.2
	c0.1-0.3,0.3-0.6,0.6-0.8l4.1-2c0.7-0.3,1.6-0.3,2.1,0.1c0.6,0.4,1,1.2,0.8,2l-0.8,4.5C19.1,17.9,19,18.3,19,18.7L19,18.7z
	 M21.1,19.3c0.5,0.4,1.1,0.3,1.5-0.1c0.4-0.5,0.3-1.1-0.1-1.5l-2.3-1.9l-0.4,2.4L21.1,19.3z"/>
</svg>
