<?xml version="1.0" encoding="utf-8"?>
<!-- Generator: Adobe Illustrator 15.1.0, SVG Export Plug-In . SVG Version: 6.00 Build 0)  -->
<!DOCTYPE svg PUBLIC "-//W3C//DTD SVG 1.1//EN" "http://www.w3.org/Graphics/SVG/1.1/DTD/svg11.dtd">
<svg version="1.1" id="artwork" xmlns="http://www.w3.org/2000/svg" xmlns:xlink="http://www.w3.org/1999/xlink" x="0px" y="0px"
	 width="35px" height="35px" viewBox="0 0 35 35" enable-background="new 0 0 35 35" xml:space="preserve">
<path fill="#668F2D" d="M35,17.5C35,27.2,27.2,35,17.5,35C7.8,35,0,27.2,0,17.5C0,7.8,7.8,0,17.5,0C27.2,0,35,7.8,35,17.5z"/>
<g>
	<path fill="#8DC53E" d="M27,13.9c-0.4-4.1-3.2-4.4-5.6-3.9c-2,0.5-3.9,1.5-3.9,1.6c-0.1,0-8.9-4.9-9.4,2.7c0,0-0.1,1.8,1,4.3h3.9
		c0.2,0,0.4,0.1,0.5,0.3l0.6,0.9l1-3.7c0.1-0.3,0.3-0.5,0.6-0.5c0,0,0,0,0,0c0.3,0,0.5,0.2,0.6,0.5l0.9,4l1.9-6.4
		c0.1-0.3,0.3-0.5,0.6-0.5l0,0c0.3,0,0.5,0.2,0.6,0.5l1.5,5h4C27.2,15.9,27,13.9,27,13.9z"/>
	<path fill="#8DC53E" d="M28.6,20.7h-3.3h-3.4h-0.5c-0.3,0-0.5-0.2-0.6-0.5l-1-3.4l-2,6.7c-0.1,0.3-0.3,0.5-0.6,0.5c0,0,0,0,0,0
		c-0.3,0-0.5-0.2-0.6-0.5l-0.8-3.8l-0.7,2.5c-0.1,0.2-0.3,0.4-0.5,0.5c-0.2,0-0.5-0.1-0.6-0.3l-1.2-1.8h-0.9H9.8H6.2
		c-0.3,0-0.6,0.3-0.6,0.6c0,0.3,0.3,0.6,0.6,0.6h4.4c1.4,2,3.4,4.2,6.7,6.3c0.2,0.1,0.3,0.2,0.5,0.3v0c0,0,0,0,0,0l0,0v0
		c3.3-2.2,5.4-4.5,6.8-6.6h4c0.3,0,0.6-0.3,0.6-0.6C29.3,20.9,29,20.7,28.6,20.7z"/>
</g>
</svg>
