<?xml version="1.0" encoding="utf-8"?>
<!-- Generator: Adobe Illustrator 15.1.0, SVG Export Plug-In . SVG Version: 6.00 Build 0)  -->
<!DOCTYPE svg PUBLIC "-//W3C//DTD SVG 1.1//EN" "http://www.w3.org/Graphics/SVG/1.1/DTD/svg11.dtd">
<svg version="1.1" id="artwork" xmlns="http://www.w3.org/2000/svg" xmlns:xlink="http://www.w3.org/1999/xlink" x="0px" y="0px"
	 width="35px" height="35px" viewBox="0 0 35 35" enable-background="new 0 0 35 35" xml:space="preserve">
<circle fill="#0471A4" cx="17.5" cy="17.5" r="17.5"/>
<path fill="#049CE3" d="M23.8,16.7c-2.1-3.3-4.2-6.5-6.3-9.7h0c-2.1,3.2-4.3,6.4-6.3,9.7c-2.3,3.7-0.9,8.6,3,10.5
	c3.6,1.8,8.1,0.3,9.9-3.3C25.3,21.6,25.1,18.9,23.8,16.7z M16.2,19.9C16.2,19.9,16.2,19.9,16.2,19.9C16.2,19.9,16.2,19.9,16.2,19.9
	c0,1.2-0.9,2.1-2.1,2.1c-1.1,0-2.1-0.9-2.1-2.1c0-0.1,0-0.1,0-0.2c0-0.2,0-0.3,0.1-0.5c0.1-0.6,0.4-1.1,0.7-1.6
	c1.3-2.2,2.8-4.3,4.2-6.4c0.2-0.3,0.4-0.6,0.6-0.9C16.9,14.1,16.2,19.7,16.2,19.9z"/>
</svg>
