<?xml version="1.0" encoding="utf-8"?>
<!-- Generator: Adobe Illustrator 15.1.0, SVG Export Plug-In . SVG Version: 6.00 Build 0)  -->
<!DOCTYPE svg PUBLIC "-//W3C//DTD SVG 1.1//EN" "http://www.w3.org/Graphics/SVG/1.1/DTD/svg11.dtd">
<svg version="1.1" id="artwork" xmlns="http://www.w3.org/2000/svg" xmlns:xlink="http://www.w3.org/1999/xlink" x="0px" y="0px"
	 width="35px" height="35px" viewBox="0 0 35 35" enable-background="new 0 0 35 35" xml:space="preserve">
<circle fill="#B5066E" cx="17.5" cy="17.5" r="17.5"/>
<path fill="#F90997" d="M24.4,9.6c0-0.7-0.6-1.3-1.3-1.3h-1.8c-0.4,0-0.7,0.1-0.9,0.4L18.4,7c-0.2-0.2-0.5-0.3-0.9-0.3
	c-0.3,0-0.6,0.1-0.9,0.3L7,15.3c-0.4,0.4-0.6,1-0.4,1.5c0.2,0.5,0.7,0.9,1.2,0.9h1.2c0.1,0,0.1,0,0.1,0.1v7.4c0,0.7,0.6,1.3,1.3,1.3
	h4c0.7,0,1.3-0.6,1.3-1.3v-4.6c0-0.1,0.1-0.2,0.2-0.2h3c0.1,0,0.2,0.1,0.2,0.2v4.6c0,0.7,0.6,1.3,1.3,1.3h4c0.7,0,1.3-0.6,1.3-1.3
	v-7.4c0-0.1,0-0.1,0.1-0.1h1.2c0.6,0,1.1-0.3,1.2-0.9c0.2-0.5,0-1.1-0.4-1.5l-3.6-3.1V9.6z"/>
</svg>
