<?xml version="1.0" encoding="utf-8"?>
<!-- Generator: Adobe Illustrator 15.1.0, SVG Export Plug-In . SVG Version: 6.00 Build 0)  -->
<!DOCTYPE svg PUBLIC "-//W3C//DTD SVG 1.1//EN" "http://www.w3.org/Graphics/SVG/1.1/DTD/svg11.dtd">
<svg version="1.1" id="artwork" xmlns="http://www.w3.org/2000/svg" xmlns:xlink="http://www.w3.org/1999/xlink" x="0px" y="0px"
	 width="35px" height="35px" viewBox="0 0 35 35" enable-background="new 0 0 35 35" xml:space="preserve">
<circle fill="#B99204" cx="17.5" cy="17.5" r="17.5"/>
<path fill="#FFCA05" d="M27.8,8.2H7.2c-0.6,0-1.1,0.6-1.1,1.2V22c0,0.7,0.5,1.2,1.1,1.2h7.6c2.8,1.1-0.7,3.6-0.7,3.6h7.1
	c0,0-3.5-2.4-1-3.6h7.5c0.6,0,1.1-0.6,1.1-1.2V9.4C28.9,8.7,28.4,8.2,27.8,8.2z M17.5,23.2c-0.3,0-0.5-0.2-0.5-0.5
	c0-0.3,0.2-0.5,0.5-0.5c0.3,0,0.5,0.2,0.5,0.5C18,23,17.8,23.2,17.5,23.2z M27.9,21.8H7.2V9h20.7V21.8z"/>
</svg>
