<?xml version="1.0" encoding="utf-8"?>
<!-- Generator: Adobe Illustrator 15.1.0, SVG Export Plug-In . SVG Version: 6.00 Build 0)  -->
<!DOCTYPE svg PUBLIC "-//W3C//DTD SVG 1.1//EN" "http://www.w3.org/Graphics/SVG/1.1/DTD/svg11.dtd">
<svg version="1.1" id="artwork" xmlns="http://www.w3.org/2000/svg" xmlns:xlink="http://www.w3.org/1999/xlink" x="0px" y="0px"
	 width="35px" height="35px" viewBox="0 0 35 35" enable-background="new 0 0 35 35" xml:space="preserve">
<circle fill="#B90000" cx="17.5" cy="17.5" r="17.5"/>
<g>
	<path fill="#FF0000" d="M13.8,12.5c0-0.6,0,1.2,0-5.2c0-0.2-0.1-0.3-0.3-0.3c-0.2,0-0.3,0.1-0.3,0.3v4.1c0,0.2-0.1,0.3-0.3,0.3
		c-0.2,0-0.3-0.1-0.3-0.3V7.3c0-0.2-0.1-0.3-0.3-0.3C12.2,7,12,7.1,12,7.3v4.1c0,0.2-0.1,0.3-0.3,0.3c-0.2,0-0.3-0.1-0.3-0.3V7.3
		c0-0.2-0.1-0.3-0.3-0.3c-0.2,0-0.3,0.1-0.3,0.3v4.1c0,0.2-0.1,0.3-0.3,0.3c-0.2,0-0.3-0.1-0.3-0.3V7.3C10.3,7.1,10.1,7,10,7
		C9.8,7,9.7,7.1,9.7,7.3c0,3.4,0,3.9,0,5.2c0,0.4,0.1,0.9,0.4,1.2c0.2,0.3,0.5,0.5,0.6,0.8c0,0.2,0,11.7,0,11.9
		c0,0.6,0.2,1.3,0.9,1.5c0.1,0,0.3,0,0.5,0c0.7-0.2,0.9-0.9,0.9-1.5c0-0.2,0-11.7,0-11.9c0.1-0.4,0.4-0.6,0.6-0.8
		C13.7,13.4,13.8,12.9,13.8,12.5z"/>
	<path fill="#FF0000" d="M19.9,8.9c-0.2-0.6-0.6-1.4-1.2-1.7c-0.2-0.1-0.3-0.2-0.5-0.2c-0.1,0-0.2,0-0.3,0c-0.1,0-0.2,0-0.3,0
		c-0.2,0-0.4,0.1-0.5,0.2c-0.6,0.4-1,1.1-1.2,1.7c-0.3,0.7-0.3,2.6-0.2,3.3c0.2,1,0.7,1.8,1.3,2.3c0,4.1,0,12.1,0,12.1
		c0,0.5,0.2,1.1,0.8,1.3c0.1,0,0.3,0,0.5,0c0.7-0.2,0.8-0.8,0.8-1.4c0,0,0-7.9,0-12c0.6-0.5,1.1-1.3,1.3-2.3
		C20.2,11.5,20.1,9.7,19.9,8.9z"/>
	<path fill="#FF0000" d="M24.9,7.5c0-0.3-0.2-0.5-0.5-0.5c-0.5,0.1-0.7,0.8-0.9,1.2C23.3,8.8,22,15.1,22,16c0.1,0.8,0.7,1.4,0.7,2.5
		c0,1,0,8.3,0,8.3c0,0.5,0.2,1.1,0.8,1.3c0.1,0,0.3,0,0.5,0c0.7-0.2,0.8-0.8,0.8-1.4C24.9,26.5,24.9,7.7,24.9,7.5z"/>
</g>
</svg>
