<?xml version="1.0" encoding="utf-8"?>
<!-- Generator: Adobe Illustrator 15.1.0, SVG Export Plug-In . SVG Version: 6.00 Build 0)  -->
<!DOCTYPE svg PUBLIC "-//W3C//DTD SVG 1.1//EN" "http://www.w3.org/Graphics/SVG/1.1/DTD/svg11.dtd">
<svg version="1.1" id="artwork" xmlns="http://www.w3.org/2000/svg" xmlns:xlink="http://www.w3.org/1999/xlink" x="0px" y="0px"
	 width="28px" height="24px" viewBox="0 0 28 24" enable-background="new 0 0 28 24" xml:space="preserve">
<g>
	<rect x="3.1" y="13.5" width="4.5" height="7.3"/>
	<ellipse cx="5.4" cy="9.8" rx="2.5" ry="2.5"/>
	<g>
		<g>
			<path d="M16.1,0H0v24h16.1v0c3.5,0,6.3-0.9,8.3-2.6c2.4-2,3.6-5.2,3.6-9.4c0-2-0.3-3.9-1-5.4c-0.6-1.5-1.5-2.8-2.7-3.8
				C22.4,1,19.5,0.1,16.1,0L16.1,0z M15.8,1.6c3.1,0,5.7,0.8,7.5,2.4c2,1.8,3.1,4.5,3.1,8c0,7-3.5,10.4-10.6,10.4
				c-0.6,0-12.7,0-14.2,0c0-1.4,0-19.4,0-20.8C3,1.6,15.2,1.6,15.8,1.6z"/>
		</g>
	</g>
	<g>
		<path fill="#CD0067" d="M10.7,11.3c0.1,0,0.2-0.1,0.3-0.1c0.1-0.1,0.1-0.2,0.2-0.3c0.1-0.2,0.1-0.4,0.1-0.7c0-0.3,0-0.5-0.1-0.7
			C11.1,9.2,11,9.1,10.9,9c-0.1-0.1-0.2-0.1-0.3-0.2c-0.1,0-0.3,0-0.7,0c0,0-0.1,0-0.3,0v2.5c0.2,0,0.5,0,0.5,0
			C10.4,11.3,10.6,11.3,10.7,11.3z"/>
		<path fill="#CD0067" d="M18.6,10.4c0.2,0,0.6,0,0.8,0c-0.1-0.2-0.3-0.8-0.4-1.1C18.9,9.6,18.7,10.2,18.6,10.4z"/>
		<path fill="#CD0067" d="M21.8,12.3V7.9h1.1c0,0,0,3.2,0,3.4c0.2,0,1.6,0,2,0c-0.4-6.1-5.2-7.8-9.8-7.8H9.7v4.4h0.6
			c0.4,0,0.6,0,0.8,0.1c0.3,0.1,0.5,0.2,0.7,0.4c0.2,0.2,0.3,0.4,0.4,0.7c0.1,0.3,0.1,0.6,0.1,1c0,0.4,0,0.7-0.1,0.9
			c-0.1,0.3-0.3,0.6-0.5,0.8c-0.2,0.2-0.4,0.3-0.6,0.4c-0.2,0.1-0.5,0.1-0.8,0.1H9.7v8.6h5.5c4.7,0,9.8-1.4,9.8-8.6H21.8z
			 M16.5,12.3h-3.4V7.9h3.4v0.9c0,0-2.1,0-2.3,0c0,0.2,0,0.5,0,0.7c0.2,0,2.1,0,2.1,0v0.9c0,0-1.9,0-2.1,0c0,0.2,0,0.7,0,0.9
			c0.2,0,2.4,0,2.4,0V12.3z M20.2,12.3c0,0-0.3-0.8-0.4-0.9c-0.1,0-1.4,0-1.5,0c0,0.1-0.4,0.9-0.4,0.9h-1.2l1.7-4.4h1.1l1.8,4.4
			H20.2z"/>
	</g>
</g>
</svg>
