<?xml version="1.0" encoding="utf-8"?>
<!-- Generator: Adobe Illustrator 15.1.0, SVG Export Plug-In . SVG Version: 6.00 Build 0)  -->
<!DOCTYPE svg PUBLIC "-//W3C//DTD SVG 1.1//EN" "http://www.w3.org/Graphics/SVG/1.1/DTD/svg11.dtd">
<svg version="1.1" id="artwork" xmlns="http://www.w3.org/2000/svg" xmlns:xlink="http://www.w3.org/1999/xlink" x="0px" y="0px"
	 width="42px" height="25px" viewBox="0 0 42 25" enable-background="new 0 0 42 25" xml:space="preserve">
<path fill-rule="evenodd" clip-rule="evenodd" fill="#FAB31E" d="M21,21.8c2.2,2,5.2,3.2,8.4,3.2C36.4,25,42,19.4,42,12.5
	C42,5.6,36.4,0,29.4,0c-3.2,0-6.2,1.2-8.4,3.2c-2.5,2.3-4.1,5.6-4.1,9.3C16.9,16.2,18.5,19.5,21,21.8L21,21.8z"/>
<path fill-rule="evenodd" clip-rule="evenodd" fill="#E40520" d="M25.1,11.2c0-0.5-0.1-0.9-0.2-1.3h-7.7c0.1-0.5,0.2-0.9,0.3-1.3h7
	c-0.2-0.5-0.3-0.9-0.5-1.3h-5.9c0.2-0.5,0.5-0.9,0.7-1.3h4.5c-0.3-0.5-0.6-0.9-1-1.3h-2.5c0.4-0.5,0.8-0.9,1.3-1.3
	c-2.2-2-5.2-3.2-8.4-3.2C5.6,0,0,5.6,0,12.5C0,19.4,5.6,25,12.6,25c3.3,0,6.2-1.2,8.4-3.2l0,0l0,0c0.5-0.4,0.9-0.8,1.3-1.3h-2.5
	c-0.3-0.4-0.7-0.9-1-1.3h4.5c0.3-0.4,0.5-0.9,0.7-1.3h-5.9c-0.2-0.4-0.4-0.9-0.5-1.3h7c0.2-0.4,0.3-0.9,0.4-1.3
	c0.1-0.4,0.2-0.9,0.2-1.3c0-0.4,0.1-0.9,0.1-1.3S25.1,11.6,25.1,11.2L25.1,11.2z"/>
<g>
	<path fill-rule="evenodd" clip-rule="evenodd" fill="#FFFFFF" d="M26.1,13c0-1.4,0.7-2.4,1.7-2.4c0.4,0,0.7,0.1,1.2,0.3l0.2-1.4
		c-0.1,0-0.2-0.1-0.3-0.1l-0.5-0.1c-0.2,0-0.4-0.1-0.6-0.1c-1.8,0-3.1,1.6-3.1,3.8c0,1.7,0.9,2.7,2.4,2.7c0.4,0,0.7-0.1,1.2-0.2
		l0.2-1.4c-0.4,0.2-0.8,0.3-1.2,0.3C26.6,14.6,26.1,14,26.1,13z"/>
	<path fill-rule="evenodd" clip-rule="evenodd" fill="#FFFFFF" d="M24.9,10.6c0,0-0.1,0-0.1,0c-0.5,0-0.7,0.2-1.1,0.8l0.1-0.8h-1.2
		l-0.8,5.1h1.4c0.5-3.2,0.6-3.7,1.3-3.7c0,0,0,0,0.1,0C24.6,11.5,24.8,11,24.9,10.6L24.9,10.6z"/>
	<path fill-rule="evenodd" clip-rule="evenodd" fill="#FFFFFF" d="M16.8,11.9h0.7l0.2-1.3H17l0.2-0.8h-1.3l-0.6,3.5l-0.1,0.4
		l-0.1,0.5c0,0.2,0,0.3,0,0.5c0,0.8,0.4,1.1,1.1,1.1c0.3,0,0.6,0,1-0.2l0.2-1.1c-0.1,0-0.2,0-0.4,0c-0.3,0-0.5-0.1-0.5-0.4
		c0-0.1,0-0.1,0-0.2L16.8,11.9z"/>
	<path fill-rule="evenodd" clip-rule="evenodd" fill="#FFFFFF" d="M13.9,11.7c0.3,0,0.6,0,1,0.1l0.2-1.2c-0.3-0.1-0.9-0.1-1.2-0.1
		c-1.5,0-2.1,0.8-2,1.7c0,0.6,0.3,1.1,1,1.4c0.6,0.3,0.7,0.3,0.7,0.6c0,0.3-0.2,0.5-0.8,0.5c-0.4,0-0.8-0.1-1.2-0.2l-0.2,1.2l0.1,0
		l0.2,0c0.1,0,0.2,0,0.4,0c0.3,0,0.6,0,0.7,0c1.4,0,2.1-0.5,2.1-1.7c0-0.7-0.3-1.1-1-1.4c-0.6-0.3-0.7-0.3-0.7-0.6
		C13.2,11.9,13.5,11.7,13.9,11.7z"/>
	<path fill-rule="evenodd" clip-rule="evenodd" fill="#FFFFFF" d="M39.4,9.4l-0.3,1.8c-0.4-0.5-0.8-0.7-1.3-0.7
		c-1.2,0-2.2,1.5-2.2,3.2c0,1.3,0.7,2.1,1.7,2.1c0.5,0,0.9-0.2,1.3-0.6l-0.1,0.5h1.3l1-6.3H39.4z M37.7,14.6c-0.5,0-0.7-0.3-0.7-1
		c0-1,0.5-1.7,1.1-1.7c0.5,0,0.7,0.3,0.7,1C38.8,13.8,38.4,14.6,37.7,14.6z"/>
	<path fill-rule="evenodd" clip-rule="evenodd" fill="#FFFFFF" d="M21.6,13.6c0.1-0.5,0.2-0.9,0.2-1.3c0-1.1-0.7-1.9-1.8-1.9
		c-1.4,0-2.4,1.3-2.4,3.1c0,1.5,0.8,2.3,2.3,2.3c0.5,0,0.9-0.1,1.4-0.2l0.2-1.3c-0.5,0.2-0.9,0.3-1.4,0.3c-0.8,0-1.2-0.3-1.2-0.9
		c0,0,0-0.1,0-0.1H21.6z M19.8,11.7c0.4,0,0.7,0.2,0.7,0.7c0,0.1,0,0.1,0,0.3H19C19.1,12,19.4,11.7,19.8,11.7z"/>
	<polygon fill-rule="evenodd" clip-rule="evenodd" fill="#FFFFFF" points="5.6,9.4 4.3,13.4 4.2,9.4 2.3,9.4 1.2,15.8 2.5,15.8 
		3.3,10.9 3.4,15.8 4.3,15.8 6.1,10.9 5.3,15.8 6.7,15.8 7.7,9.4 	"/>
	<path fill-rule="evenodd" clip-rule="evenodd" fill="#FFFFFF" d="M11.5,12c0-1-0.6-1.5-1.8-1.5c-0.5,0-1,0.1-1.6,0.3l-0.2,1.2
		l0.1,0l0.2-0.1c0.3-0.1,0.7-0.1,1.1-0.1c0.6,0,0.9,0.1,0.9,0.5c0,0.1,0,0.2,0,0.3c-0.2,0-0.4,0-0.6,0c-1.5,0-2.4,0.7-2.4,2
		c0,0.8,0.5,1.4,1.2,1.4c0.6,0,1.1-0.2,1.4-0.6l0,0.5H11l0-0.1l0-0.2l0-0.3l0-0.3l0.3-1.8C11.5,12.5,11.5,12.3,11.5,12z M9.1,14.8
		c-0.3,0-0.5-0.2-0.5-0.5c0-0.5,0.4-0.8,1.2-0.8c0.1,0,0.2,0,0.3,0C10,14.3,9.6,14.8,9.1,14.8z"/>
	<path fill-rule="evenodd" clip-rule="evenodd" fill="#FFFFFF" d="M31.2,10.5c-0.5,0-1,0.1-1.6,0.3l-0.2,1.2l0.1,0l0.2-0.1
		c0.3-0.1,0.8-0.1,1.1-0.1c0.6,0,0.9,0.1,0.9,0.5c0,0.1,0,0.2-0.1,0.3c-0.2,0-0.4,0-0.5,0c-1.5,0-2.4,0.7-2.4,2
		c0,0.8,0.5,1.4,1.2,1.4c0.6,0,1.1-0.2,1.4-0.6l0,0.5h1.1v-0.1l0-0.2l0-0.3l0-0.3l0.3-1.8c0.1-0.6,0.1-0.8,0.1-1
		C33,11,32.4,10.5,31.2,10.5z M30.5,14.8c-0.3,0-0.5-0.2-0.5-0.5c0-0.5,0.4-0.8,1.2-0.8c0.1,0,0.2,0,0.3,0
		C31.5,14.3,31.1,14.8,30.5,14.8z"/>
	<path fill-rule="evenodd" clip-rule="evenodd" fill="#FFFFFF" d="M35.7,12.1c0.1-0.6,0.3-1.1,0.5-1.5l0,0c0,0-0.1,0-0.1,0
		c-0.5,0-0.7,0.2-1.1,0.8l0.1-0.8h-1.2L33,15.8h1.3C34.8,12.6,34.9,12.1,35.7,12.1C35.6,12.1,35.6,12.1,35.7,12.1z"/>
</g>
</svg>
