<?xml version="1.0" encoding="utf-8"?>
<!-- Generator: Adobe Illustrator 15.1.0, SVG Export Plug-In . SVG Version: 6.00 Build 0)  -->
<!DOCTYPE svg PUBLIC "-//W3C//DTD SVG 1.1//EN" "http://www.w3.org/Graphics/SVG/1.1/DTD/svg11.dtd">
<svg version="1.1" id="artwork" xmlns="http://www.w3.org/2000/svg" xmlns:xlink="http://www.w3.org/1999/xlink" x="0px" y="0px"
	 width="118px" height="30px" viewBox="0 0 118 30" enable-background="new 0 0 118 30" xml:space="preserve">
<g>
	<g>
		<path fill="#009CDE" d="M91,7.9h-6.4c-0.4,0-0.8,0.3-0.9,0.8l-2.6,16.5c-0.1,0.3,0.2,0.6,0.5,0.6h3.3c0.3,0,0.6-0.2,0.6-0.5
			l0.7-4.7c0.1-0.4,0.4-0.8,0.9-0.8h2c4.2,0,6.7-2.1,7.3-6.1c0.3-1.8,0-3.2-0.8-4.2C94.8,8.5,93.2,7.9,91,7.9 M91.8,14
			c-0.4,2.3-2.1,2.3-3.8,2.3h-1l0.7-4.3c0-0.3,0.3-0.5,0.5-0.5h0.4c1.2,0,2.3,0,2.8,0.7C91.8,12.6,91.9,13.2,91.8,14"/>
		<path fill="#003087" d="M45,7.9h-6.4c-0.4,0-0.8,0.3-0.9,0.8l-2.6,16.5c-0.1,0.3,0.2,0.6,0.5,0.6h3.1c0.4,0,0.8-0.3,0.9-0.8
			l0.7-4.5c0.1-0.4,0.4-0.8,0.9-0.8h2c4.2,0,6.7-2.1,7.3-6.1c0.3-1.8,0-3.2-0.8-4.2C48.8,8.5,47.2,7.9,45,7.9 M45.8,14
			c-0.4,2.3-2.1,2.3-3.8,2.3h-1l0.7-4.3c0-0.3,0.3-0.5,0.5-0.5h0.4c1.2,0,2.3,0,2.8,0.7C45.8,12.6,45.9,13.2,45.8,14"/>
		<path fill="#003087" d="M64.3,13.9h-3.1c-0.3,0-0.5,0.2-0.5,0.5l-0.1,0.9l-0.2-0.3c-0.7-1-2.2-1.3-3.6-1.3c-3.4,0-6.3,2.6-6.9,6.2
			c-0.3,1.8,0.1,3.5,1.2,4.7c0.9,1.1,2.3,1.6,3.9,1.6c2.8,0,4.3-1.8,4.3-1.8L59,25.2c-0.1,0.3,0.2,0.6,0.5,0.6h2.8
			c0.4,0,0.8-0.3,0.9-0.8l1.7-10.6C64.9,14.2,64.6,13.9,64.3,13.9 M60,19.9c-0.3,1.8-1.7,2.9-3.5,2.9c-0.9,0-1.6-0.3-2.1-0.8
			c-0.5-0.5-0.6-1.3-0.5-2.2c0.3-1.7,1.7-3,3.5-3c0.9,0,1.6,0.3,2.1,0.8C60,18.3,60.2,19.1,60,19.9"/>
		<path fill="#009CDE" d="M110.3,13.9h-3.1c-0.3,0-0.5,0.2-0.5,0.5l-0.1,0.9l-0.2-0.3c-0.7-1-2.2-1.3-3.6-1.3
			c-3.4,0-6.3,2.6-6.9,6.2c-0.3,1.8,0.1,3.5,1.1,4.7c0.9,1.1,2.3,1.6,3.9,1.6c2.8,0,4.3-1.8,4.3-1.8l-0.1,0.9
			c-0.1,0.3,0.2,0.6,0.5,0.6h2.8c0.4,0,0.8-0.3,0.9-0.8l1.7-10.6C110.9,14.2,110.6,13.9,110.3,13.9 M106,19.9
			c-0.3,1.8-1.7,2.9-3.5,2.9c-0.9,0-1.6-0.3-2.1-0.8c-0.5-0.5-0.6-1.3-0.5-2.2c0.3-1.7,1.7-3,3.5-3c0.9,0,1.6,0.3,2.1,0.8
			C106,18.3,106.1,19.1,106,19.9"/>
		<path fill="#003087" d="M80.8,13.9h-3.1c-0.3,0-0.6,0.1-0.7,0.4l-4.3,6.3l-1.8-6c-0.1-0.4-0.5-0.6-0.9-0.6h-3
			c-0.4,0-0.6,0.4-0.5,0.7l3.4,10l-3.2,4.5c-0.3,0.4,0,0.8,0.4,0.8h3.1c0.3,0,0.6-0.1,0.7-0.4l10.3-14.9
			C81.5,14.4,81.2,13.9,80.8,13.9"/>
		<path fill="#009CDE" d="M114,8.4l-2.6,16.8c-0.1,0.3,0.2,0.6,0.5,0.6h2.7c0.4,0,0.8-0.3,0.9-0.8L118,8.6c0.1-0.3-0.2-0.6-0.5-0.6
			h-3C114.2,8,114,8.1,114,8.4"/>
	</g>
	<path fill="#003087" d="M21.7,2.3C20.3,0.7,17.8,0,14.6,0H5.2C4.6,0,4,0.5,3.9,1.1L0,25.7c-0.1,0.5,0.3,0.9,0.8,0.9h5.8L8,17.5
		l0,0.3c0.1-0.6,0.7-1.1,1.3-1.1H12c5.4,0,9.6-2.2,10.8-8.5c0-0.2,0.1-0.4,0.1-0.5c-0.2-0.1-0.2-0.1,0,0C23.3,5.3,23,3.7,21.7,2.3"
		/>
	<path fill="#009CDE" d="M23,7.6L23,7.6c0,0.2-0.1,0.4-0.1,0.5c-1.2,6.3-5.4,8.5-10.8,8.5H9.3c-0.7,0-1.2,0.5-1.3,1.1l-1.4,8.9
		l-0.4,2.5C6.1,29.6,6.4,30,6.9,30h4.9c0.6,0,1.1-0.4,1.2-1l0-0.2l0.9-5.8l0.1-0.3c0.1-0.6,0.6-1,1.2-1h0.7c4.7,0,8.4-1.9,9.5-7.4
		c0.5-2.3,0.2-4.2-1-5.6C23.9,8.2,23.5,7.9,23,7.6"/>
	<path fill="#012169" d="M21.7,7.1C21.5,7.1,21.3,7,21.1,7c-0.2,0-0.4-0.1-0.6-0.1c-0.7-0.1-1.5-0.2-2.4-0.2h-7.3
		c-0.2,0-0.4,0-0.5,0.1C9.9,6.9,9.6,7.3,9.6,7.7L8,17.5l0,0.3c0.1-0.6,0.7-1.1,1.3-1.1H12c5.4,0,9.6-2.2,10.8-8.5
		c0-0.2,0.1-0.4,0.1-0.5c-0.3-0.2-0.6-0.3-1-0.4C21.9,7.2,21.8,7.1,21.7,7.1"/>
</g>
</svg>
