<?xml version="1.0" encoding="utf-8"?>
<!-- Generator: Adobe Illustrator 15.1.0, SVG Export Plug-In . SVG Version: 6.00 Build 0)  -->
<!DOCTYPE svg PUBLIC "-//W3C//DTD SVG 1.1//EN" "http://www.w3.org/Graphics/SVG/1.1/DTD/svg11.dtd">
<svg version="1.1" id="artwork" xmlns="http://www.w3.org/2000/svg" xmlns:xlink="http://www.w3.org/1999/xlink" x="0px" y="0px"
	 width="58.5px" height="18px" viewBox="0 0 58.5 18" enable-background="new 0 0 58.5 18" xml:space="preserve">
<g>
	<polygon fill-rule="evenodd" clip-rule="evenodd" fill="#005098" points="20.6,17.7 23.6,0.3 28.3,0.3 25.3,17.7 20.6,17.7 	"/>
	<path fill-rule="evenodd" clip-rule="evenodd" fill="#005098" d="M42.5,0.7C41.6,0.4,40.1,0,38.3,0c-4.7,0-8,2.4-8,5.8
		c0,2.5,2.4,3.9,4.1,4.7c1.8,0.9,2.5,1.4,2.4,2.2c0,1.2-1.5,1.7-2.8,1.7c-1.9,0-2.9-0.3-4.5-0.9L29,13.2l-0.6,3.9
		c1.1,0.5,3.1,0.9,5.3,0.9c5,0,8.2-2.3,8.2-6c0-2-1.2-3.5-4-4.7c-1.7-0.8-2.7-1.3-2.7-2.1c0-0.7,0.9-1.5,2.7-1.5
		c1.6,0,2.7,0.3,3.5,0.7l0.4,0.2L42.5,0.7L42.5,0.7z"/>
	<path fill-rule="evenodd" clip-rule="evenodd" fill="#005098" d="M54.7,0.3H51c-1.1,0-2,0.3-2.5,1.4l-7,16h5c0,0,0.8-2.2,1-2.6
		c0.6,0,5.4,0,6.1,0c0.1,0.6,0.6,2.6,0.6,2.6h4.4L54.7,0.3L54.7,0.3z M48.8,11.6c0.4-1,1.9-4.9,1.9-4.9c0,0,0.4-1,0.6-1.7l0.3,1.5
		c0,0,0.9,4.2,1.1,5H48.8L48.8,11.6z"/>
	<path fill-rule="evenodd" clip-rule="evenodd" fill="#005098" d="M16.6,0.3L12,12.2l-0.5-2.4C10.6,7,7.9,4,4.9,2.5l4.2,15.3h5
		l7.5-17.4H16.6L16.6,0.3z"/>
	<path fill-rule="evenodd" clip-rule="evenodd" fill="#F7A600" d="M7.7,0.3H0l0,0.4c5.9,1.4,9.9,4.9,11.5,9.1l-1.7-8
		C9.5,0.7,8.7,0.3,7.7,0.3L7.7,0.3z"/>
</g>
</svg>
