<?xml version="1.0" encoding="utf-8"?>
<!-- Generator: Adobe Illustrator 15.0.2, SVG Export Plug-In . SVG Version: 6.00 Build 0)  -->
<!DOCTYPE svg PUBLIC "-//W3C//DTD SVG 1.1//EN" "http://www.w3.org/Graphics/SVG/1.1/DTD/svg11.dtd">
<svg version="1.1" xmlns="http://www.w3.org/2000/svg" xmlns:xlink="http://www.w3.org/1999/xlink" x="0px" y="0px"
	 width="245" height="44" viewBox="0 0 243.561 43.879" enable-background="new 0 0 243.561 43.879"
	 xml:space="preserve">
<g id="vb" display="none">
	
		<image display="inline" overflow="visible" width="799" height="187" xlink:href="7288307F.jpg"  transform="matrix(0.3309 0 0 0.3309 -9.4678 -10.769)">
	</image>
</g>
<g id="logo" display="none">
	<g display="inline">
		<polygon fill="#231F20" points="72.969,26.954 64.946,12.329 64.82,12.104 60.026,12.104 71.31,32.045 74.516,32.045 
			85.24,12.104 80.768,12.104 		"/>
		<rect x="93.898" y="12.135" fill="#231F20" width="4.336" height="19.911"/>
		<polygon fill="#231F20" points="107.2,15.818 116.013,15.818 116.013,32.045 120.425,32.045 120.425,15.818 129.292,15.818 
			129.292,12.103 107.2,12.103 		"/>
		<rect x="138.257" y="12.104" fill="#231F20" width="4.335" height="19.906"/>
		<polygon fill="#231F20" points="157.187,12.071 152.781,12.071 152.781,32.014 171.204,32.014 171.204,28.271 157.187,28.271 		
			"/>
		<rect x="178.948" y="12.071" fill="#231F20" width="4.348" height="19.909"/>
		<polygon fill="#231F20" points="192.261,15.756 200.553,15.756 200.553,31.983 204.955,31.983 204.955,15.756 213.81,15.756 
			213.81,12.037 192.261,12.037 		"/>
		<polygon fill="#231F20" points="238.232,12.039 231.298,20.096 224.009,12.039 218.534,12.039 228.852,23.382 228.852,31.983 
			233.258,31.983 233.258,23.381 243.561,12.039 		"/>
	</g>
	<path display="inline" fill="#231F20" d="M21.699,0.039c-12.148,0-22,9.851-22,22.001c0,12.149,9.851,22,22,22
		c12.149,0,22-9.851,22-22C43.7,9.889,33.849,0.039,21.699,0.039z M21.553,37.666v0.048c0-0.011-0.003-0.012-0.003-0.021
		c-0.003,0.009-0.003,0.01-0.003,0.021v-0.048C20.343,25.284,6.029,12.861,6.029,12.861c9.991,0,15.458,10.602,15.521,10.718
		c0.062-0.116,5.524-10.718,15.521-10.718C37.07,12.861,22.753,25.284,21.553,37.666z"/>
</g>
<g id="opgestrakt_PSD">
	<polygon points="72.969,26.954 64.946,12.329 64.82,12.104 60.026,12.104 71.31,31.946 74.516,31.946 85.24,12.104 
		80.768,12.104 	"/>
	<rect x="94.798" y="12.135" width="3.738" height="19.811"/>
	<polygon points="107.598,15.818 116.611,15.818 116.611,31.946 120.425,31.946 120.425,15.818 129.292,15.818 
		129.292,12.103 107.598,12.103 	"/>
	<rect x="138.457" y="12.104" width="3.937" height="19.806"/>
	<polygon points="157.187,12.071 153.478,12.071 153.478,31.915 171.204,31.915 171.204,28.072 157.187,28.072 	"/>
	<rect x="179.346" y="12.071" width="3.75" height="19.809"/>
	<polygon points="191.361,15.756 200.25,15.756 200.25,31.883 204.154,31.883 204.154,15.756 213.113,15.756 
		213.113,12.037 191.361,12.037 	"/>
	<polygon points="238.232,12.039 231.298,20.096 224.009,12.039 218.534,12.039 229.151,23.382 229.151,31.883 
		233.059,31.883 233.059,23.381 243.561,12.039 	"/>
	<path d="M21.867,0C9.644,0,0,9.809,0,22.034s9.644,21.846,21.867,21.846c12.224,0,21.833-9.621,21.833-21.846
		S34.09,0,21.867,0z M21.719,37.756v0.047c0-0.009-0.003-0.015-0.003-0.023c-0.003,0.009-0.003,0.015-0.003,0.023v-0.047
		C20.502,25.295,6.103,12.8,6.103,12.8c10.052,0,15.551,10.665,15.613,10.783C21.779,23.465,27.272,12.8,37.329,12.8
		C37.329,12.8,22.927,25.295,21.719,37.756z"/>
</g>
<g id="opgestrakt_SVG" display="none">
	<g display="inline">
		<polygon fill="#231F20" points="72.969,26.954 64.621,12.004 60.026,12.004 71.41,31.981 74.516,31.981 85.439,12.004 
			80.868,12.004 		"/>
		<rect x="94.458" y="11.981" fill="#231F20" width="4" height="20"/>
		<polygon fill="#231F20" points="107.458,15.981 116.458,15.981 116.458,31.981 120.425,31.981 120.425,15.981 129.458,15.981 
			129.458,11.981 107.458,11.981 		"/>
		<rect x="138.458" y="11.981" fill="#231F20" width="4" height="19.965"/>
		<polygon fill="#231F20" points="157.458,11.981 153.458,11.981 153.458,31.95 170.458,31.95 170.458,27.981 157.458,27.981 		"/>
		<rect x="179.458" y="11.981" fill="#231F20" width="4" height="19.999"/>
		<polygon fill="#231F20" points="191.458,15.981 200.553,15.981 200.553,31.981 204.458,31.981 204.458,15.981 213.458,15.981 
			213.458,11.981 191.458,11.981 		"/>
		<polygon fill="#231F20" points="238.55,11.981 230.521,20.096 222.236,11.981 217.458,11.981 228.458,22.884 228.458,31.981 
			232.458,31.981 232.458,22.983 243.282,11.981 		"/>
	</g>
	<path display="inline" fill="#231F20" d="M22.557-0.02c-12.198,0-22,9.801-22,22c0,12.199,9.801,22,22,22c12.199,0,22-9.801,22-22
		C44.558,9.781,34.756-0.02,22.557-0.02z M22.41,37.671v0.048c0-0.01-0.003-0.016-0.003-0.023c-0.003,0.008-0.003,0.014-0.003,0.023
		v-0.048C21.196,25.236,6.825,12.767,6.825,12.767c10.031,0,15.519,10.643,15.582,10.761c0.063-0.118,5.546-10.761,15.582-10.761
		C37.988,12.767,23.615,25.236,22.41,37.671z"/>
</g>
<g id="kader">
	
		<rect x="-12.009" y="-17.041" opacity="0" stroke="#231F20" stroke-width="0.1" stroke-miterlimit="10" width="270" height="80"/>
</g>
</svg>
