<?xml version="1.0" encoding="utf-8"?>
<!-- Generator: Adobe Illustrator 15.0.2, SVG Export Plug-In . SVG Version: 6.00 Build 0)  -->
<!DOCTYPE svg PUBLIC "-//W3C//DTD SVG 1.1//EN" "http://www.w3.org/Graphics/SVG/1.1/DTD/svg11.dtd">
<svg version="1.1" id="Layer_1" xmlns="http://www.w3.org/2000/svg" xmlns:xlink="http://www.w3.org/1999/xlink" x="0px" y="0px"
	 width="25.828px" height="25.829px" viewBox="0 0 25.828 25.829" enable-background="new 0 0 25.828 25.829" xml:space="preserve">
<path d="M25.828,23l-7.485-7.486c2.573-3.883,2.149-9.164-1.272-12.585C15.117,0.977,12.558,0,9.999,0
	s-5.118,0.977-7.07,2.93c-3.905,3.906-3.905,10.232,0,14.143C4.881,19.025,7.439,20,9.998,20c1.925,0,3.85-0.554,5.516-1.658
	L23,25.829L25.828,23z M5.052,14.954c-2.728-2.733-2.729-7.174,0-9.904C6.372,3.728,8.129,3,9.999,3s3.627,0.729,4.95,2.051
	C16.271,6.374,17,8.131,17,10s-0.729,3.625-2.051,4.95C13.626,16.272,11.868,17,9.998,17C8.129,17,6.372,16.272,5.052,14.954z"/>
<g id="_x32__rond" display="none">
	
		<line display="inline" fill="none" stroke="#000000" stroke-width="4" stroke-linecap="round" stroke-miterlimit="10" x1="17" y1="17" x2="23" y2="23"/>
	<g display="inline">
		<path d="M9.999,3c1.87,0,3.627,0.729,4.95,2.051C16.271,6.374,17,8.131,17,10s-0.729,3.625-2.051,4.95
			C13.626,16.272,11.868,17,9.998,17c-1.869,0-3.626-0.729-4.946-2.047c-2.728-2.733-2.729-7.174,0-9.904
			C6.372,3.728,8.129,3,9.999,3 M9.999,0C7.44,0,4.881,0.977,2.929,2.93c-3.905,3.906-3.905,10.232,0,14.143
			C4.881,19.025,7.439,20,9.998,20c2.56,0,5.119-0.978,7.072-2.931c3.906-3.906,3.906-10.235,0-14.141
			C15.117,0.977,12.558,0,9.999,0L9.999,0z"/>
	</g>
</g>
<g id="kader" display="none">
	
		<rect x="-4" y="-4" display="inline" fill="none" stroke="#000000" stroke-miterlimit="10" stroke-opacity="0" width="32" height="32"/>
</g>
<g id="Layer_4" display="none">
</g>
</svg>
