<svg xmlns="http://www.w3.org/2000/svg" width="40.2" height="40" viewBox="0 0 40.2 40"><path fill="#0978AF" d="M40.2 25.9c0-.4-.1-.6-.2-.9V0H0v40h40V26.8c.1-.3.2-.5.2-.9z"/><path fill="#fff" d="M29.4 15.4l-.8 1.9h1.6zM2.1 17.3h1.5l-.8-1.9zM20.5 16.6c.1-.1.2-.2.2-.4s-.1-.3-.2-.4c-.1-.1-.3-.1-.5-.1h-1.4v1H20c.1 0 .3 0 .5-.1zM10.1 19.4v.8h9.4v-1.7h.2c.1 0 .2 0 .2.2v1.5h4.8v-.4c.4.2 1 .4 1.8.4h2l.4-1h1l.4 1h3.9v-1l.6 1H38v-6.5h-3.1v.8l-.4-.8h-3.2v.8l-.4-.8h-4.3c-.7 0-1.4.1-1.9.4v-.4h-3v.4c-.3-.3-.8-.4-1.3-.4H9.6l-.7 1.7-.8-1.7H4.7v.8l-.4-.8H1.4L0 16.8v3.4h1.9l.4-1h1l.4 1h3.8v-.8l.3.8h2l.3-.8zm14.8-4.2c.4-.4.9-.5 1.7-.5h1.1v1h-1.1c-.4 0-.6.1-.9.3-.2.2-.3.6-.3 1.1s.1.9.3 1.1c.2.2.5.2.8.2h.5l1.6-3.7h1.7l1.9 4.4v-4.4h1.7l2 3.3v-3.3H37v4.7h-1.6l-2.1-3.5v3.5H31l-.4-1h-2.3l-.4 1h-1.3c-.5 0-1.2-.1-1.6-.5-.4-.4-.6-.9-.6-1.8-.1-.8 0-1.4.5-1.9zm-2.3-.6h1.1v4.7h-1.1v-4.7zm-5.2 0H20c.6 0 1 0 1.4.2.4.2.6.5.6 1 0 .7-.5 1.1-.8 1.2.2.1.5.3.6.4.2.2.2.4.2.9v.9h-1.1v-.6c0-.3 0-.7-.2-.9-.2-.2-.4-.2-.8-.2h-1.2v1.7h-1.1v-4.6h-.2zm-4.5 0h3.7v1H14v.8h2.6v1H14v.9h2.6v1h-3.7v-4.7zm-4.6 4.7l-1.6-3.7v3.7H4.4l-.4-1H1.7l-.4 1H0l2-4.7h1.7L5.6 19v-4.4h1.8l1.5 3.2 1.3-3.2h1.9v4.7H11v-3.7l-1.6 3.7H8.3z"/><g fill="#fff"><path d="M20 23.7h-1.5v1.2H20c.4 0 .7-.2.7-.6 0-.5-.3-.6-.7-.6zM38 23.7c-.2 0-.3 0-.5.1-.1.1-.2.2-.2.3 0 .2.1.3.2.3s.2.1.4.1h.6c.6 0 1 .1 1.3.4l.2.1v-1.3h-2zM17.4 27v-3.8l-1.7 1.9zM10.2 23.7v.8h2.5v1h-2.5v.9H13l1.2-1.4-1.2-1.3zM25.4 23.8c-.1-.1-.3-.1-.5-.1h-1.4v1.1h1.4c.2 0 .4 0 .6-.1.1-.1.2-.3.2-.5s-.1-.4-.3-.4zM38.5 27.4h-2.2v-1h2.2c.2 0 .4 0 .5-.1.1-.1.1-.2.1-.3s-.1-.2-.1-.3c-.1-.1-.2-.1-.4-.1-1.1 0-2.4 0-2.4-1.5 0-.7.4-1.4 1.6-1.4H40v-.9h-2.1c-.6 0-1.1.2-1.4.4v-.4h-3.1c-.5 0-1.1.102-1.3.4v-.4h-5.5v.4c-.4-.3-1.2-.4-1.5-.4h-3.6v.4c-.3-.3-1.1-.4-1.6-.4h-4l-.9 1-.9-1h-6v6.5H14l1-1 .9 1h3.7v-1.5h.4c.5 0 1.1 0 1.6-.2v1.8h3v-1.7h.1c.2 0 .2 0 .2.2v1.5h9.2c.6 0 1.2-.1 1.5-.4v.4h2.9c.6 0 1.2-.1 1.6-.3v-1.2c-.4.3-.9.5-1.6.5zm-18.6-1.6h-1.4v1.6h-2.2L15 25.8l-1.4 1.6H9.1v-4.7h4.5l1.4 1.5 1.4-1.5H20c.9 0 1.9.2 1.9 1.5 0 1.4-1 1.6-2 1.6zm6.8-.2c.2.2.2.4.2.9v.9h-1.1v-.6c0-.3 0-.7-.2-.9-.2-.2-.4-.2-.8-.2h-1.2v1.7h-1.1v-4.7H25c.6 0 1 0 1.3.2.4.2.6.5.6 1 0 .7-.5 1.1-.8 1.2.3.2.5.4.6.5zm4.6-1.9h-2.6v.9h2.6v1h-2.6v.9h2.6v1h-3.7v-4.7h3.7v.9zm2.8 3.7h-2.2v-1h2.2c.2 0 .4 0 .5-.1.1-.1.1-.2.1-.3s-.1-.2-.1-.3c-.1-.1-.2-.1-.4-.1-1 0-2.4 0-2.4-1.5 0-.7.4-1.4 1.6-1.4h2.2v1h-2.1c-.2 0-.3 0-.4.1-.1.1-.1.2-.1.3 0 .2.1.3.2.3s.2.1.4.1h.6c.6 0 1 .1 1.3.4.2.2.3.5.3 1 .1 1-.5 1.5-1.7 1.5z"/></g></svg>