<svg xmlns="http://www.w3.org/2000/svg" width="59.999" height="60.183" viewBox="0 0 59.999 60.183"><g><ellipse opacity=".05" cx="30" cy="56.682" rx="30" ry="3.501"/><ellipse opacity=".05" cx="30" cy="56.682" rx="27.499" ry="2.801"/><ellipse opacity=".15" cx="29.999" cy="56.682" rx="25" ry="2.101"/><path opacity=".2" d="M52.5 56.682c0 .773-10.078 1.4-22.5 1.4-12.427 0-22.5-.627-22.5-1.4 0-.77 10.073-1.4 22.5-1.4 12.422 0 22.5.628 22.5 1.4z"/><linearGradient id="a" gradientUnits="userSpaceOnUse" x1="19.517" y1="5.141" x2="40.698" y2="5.141"><stop offset=".1" stop-color="#AFB2B6"/><stop offset=".25" stop-color="#EBECED"/><stop offset=".75" stop-color="#EBECED"/><stop offset=".9" stop-color="#AFB2B6"/></linearGradient><path fill="url(#a)" d="M37.22 0H23l-3.483 3.73v6.552h3.328v-6.55H37.47v6.55h3.228v-6.55z"/><linearGradient id="b" gradientUnits="userSpaceOnUse" x1="39.087" y1="10.28" x2="39.087" y2=".241"><stop offset="0" stop-color="#AFB2B6"/><stop offset=".328" stop-color="#D8DADC"/><stop offset=".713" stop-color="#DCDDDF"/><stop offset="1" stop-color="#F8F8F9"/></linearGradient><path fill="url(#b)" d="M37.226.004V10.53h3.722V3.727z"/><linearGradient id="c" gradientUnits="userSpaceOnUse" x1="21.22" y1="10.28" x2="21.22" y2=".237"><stop offset="0" stop-color="#AFB2B6"/><stop offset=".328" stop-color="#D8DADC"/><stop offset=".713" stop-color="#DCDDDF"/><stop offset="1" stop-color="#F8F8F9"/></linearGradient><path fill="url(#c)" d="M22.972.02L19.367 3.73v6.8h3.705z"/><linearGradient id="d" gradientUnits="userSpaceOnUse" x1="29.975" y1="56.685" x2="29.975" y2="9.83"><stop offset="0" stop-color="#CBCBCB"/><stop offset=".414" stop-color="#F0F0F0"/></linearGradient><path fill="url(#d)" d="M51.583 11.83l-4.117-2H13.3l-4.91 2.3-.042 44.555h43.255l-.02-44.855z"/><linearGradient id="e" gradientUnits="userSpaceOnUse" x1="30.212" y1="40.568" x2="30.212" y2="20.571"><stop offset="0" stop-color="#A1A1A1"/><stop offset="1" stop-color="#BCBCBC"/></linearGradient><path fill="url(#e)" d="M30.22 20.57c-5.57 0-9.966 4.47-9.966 10.04s4.396 9.958 9.966 9.958c5.572 0 9.95-4.387 9.95-9.957s-4.378-10.04-9.95-10.04zm-.067 17.207v.02l-.002-.01v.01-.02c-.552-5.68-7.116-11.375-7.116-11.375 4.583 0 7.088 4.86 7.117 4.914.03-.053 2.535-4.914 7.117-4.914 0 0-6.564 5.696-7.114 11.375z"/><linearGradient id="f" gradientUnits="userSpaceOnUse" x1="10.823" y1="56.685" x2="10.823" y2="9.831"><stop offset="0" stop-color="#CBCBCB"/><stop offset=".874" stop-color="#E6E6E6"/></linearGradient><path fill="url(#f)" d="M13.3 9.83l-4.91 2.3-.042 44.555h3.62l1.33-46.855z"/><linearGradient id="g" gradientUnits="userSpaceOnUse" x1="49.534" y1="56.685" x2="49.534" y2="9.83"><stop offset="0" stop-color="#CBCBCB"/><stop offset=".654" stop-color="#E6E6E6"/></linearGradient><path fill="url(#g)" d="M47.84 56.685h3.763l-.02-44.855-4.117-2z"/></g></svg>