<svg xmlns="http://www.w3.org/2000/svg" width="35" height="35" viewBox="0 0 35 35"><path fill="#668F2D" d="M35 17.5C35 27.2 27.2 35 17.5 35S0 27.2 0 17.5 7.8 0 17.5 0 35 7.8 35 17.5z"/><g fill="#8DC53E"><path d="M27 13.9c-.4-4.1-3.2-4.4-5.6-3.9-2 .5-3.9 1.5-3.9 1.6-.1 0-8.9-4.9-9.4 2.7 0 0-.1 1.8 1 4.3H13c.2 0 .4.1.5.3l.6.9 1-3.7c.1-.3.3-.5.6-.5s.5.2.6.5l.9 4 1.9-6.4c.1-.3.3-.5.6-.5s.5.2.6.5l1.5 5h4c1.4-2.8 1.2-4.8 1.2-4.8zM28.6 20.7H21.4c-.3 0-.5-.2-.6-.5l-1-3.4-2 6.7c-.1.3-.3.5-.6.5s-.5-.2-.6-.5l-.8-3.8-.7 2.5c-.1.2-.3.4-.5.5-.2 0-.5-.1-.6-.3l-1.2-1.8H6.2c-.3 0-.6.3-.6.6s.3.6.6.6h4.4c1.4 2 3.4 4.2 6.7 6.3.2.1.3.2.5.3 3.3-2.2 5.4-4.5 6.8-6.6h4c.3 0 .6-.3.6-.6.1-.3-.2-.5-.6-.5z"/></g></svg>