<svg xmlns="http://www.w3.org/2000/svg" width="35" height="35" viewBox="0 0 35 35"><circle fill="#B36B16" cx="17.5" cy="17.5" r="17.5"/><path fill-rule="evenodd" clip-rule="evenodd" fill="#F7931E" d="M15.2 20l-2.6 7.2c-.3.7.1 1.6.9 1.8.7.3 1.6-.1 1.8-.9l2.1-5.8-2.2-2.3zm4.2-14.2c-1.2 0-2.3 1-2.3 2.3s1 2.3 2.3 2.3c1.2 0 2.3-1 2.3-2.3s-1-2.3-2.3-2.3zM19 18.7l2 2.3c.2.3.4.6.4.9l.2 5.7c0 .8-.6 1.5-1.4 1.5-.8 0-1.5-.6-1.5-1.4l-.2-5.2-2.5-2.8c-.7-.6-1-1.4-.8-2.3l.6-3.4-1.5.7-.7 2.8c-.1.6-.7.9-1.3.8-.6-.1-.9-.7-.8-1.3l.8-3.2c.1-.3.3-.6.6-.8l4.1-2c.7-.3 1.6-.3 2.1.1.6.4 1 1.2.8 2l-.8 4.5c0 .3-.1.7-.1 1.1zm2.1.6c.5.4 1.1.3 1.5-.1.4-.5.3-1.1-.1-1.5l-2.3-1.9-.4 2.4 1.3 1.1z"/></svg>