<svg xmlns="http://www.w3.org/2000/svg" width="35" height="35" viewBox="0 0 35 35"><circle fill="#B5066E" cx="17.5" cy="17.5" r="17.5"/><path fill="#F90997" d="M24.4 9.6c0-.7-.6-1.3-1.3-1.3h-1.8c-.4 0-.7.1-.9.4l-2-1.7c-.2-.2-.5-.3-.9-.3-.3 0-.6.1-.9.3L7 15.3c-.4.4-.6 1-.4 1.5.2.5.7.9 1.2.9H9c.1 0 .1 0 .1.1v7.4c0 .7.6 1.3 1.3 1.3h4c.7 0 1.3-.6 1.3-1.3v-4.6c0-.1.1-.2.2-.2h3c.1 0 .2.1.2.2v4.6c0 .7.6 1.3 1.3 1.3h4c.7 0 1.3-.6 1.3-1.3v-7.4c0-.1 0-.1.1-.1H27c.6 0 1.1-.3 1.2-.9.2-.5 0-1.1-.4-1.5l-3.6-3.1V9.6z"/></svg>