<svg xmlns="http://www.w3.org/2000/svg" width="35" height="35" viewBox="0 0 35 35"><circle fill="#B90000" cx="17.5" cy="17.5" r="17.5"/><g fill="#f00"><path d="M13.8 12.5V7.3c0-.2-.1-.3-.3-.3-.2 0-.3.1-.3.3v4.1c0 .2-.1.3-.3.3-.2 0-.3-.1-.3-.3V7.3c0-.2-.1-.3-.3-.3-.1 0-.3.1-.3.3v4.1c0 .2-.1.3-.3.3-.2 0-.3-.1-.3-.3V7.3c0-.2-.1-.3-.3-.3-.2 0-.3.1-.3.3v4.1c0 .2-.1.3-.3.3-.2 0-.3-.1-.3-.3V7.3c.1-.2-.1-.3-.2-.3-.2 0-.3.1-.3.3v5.2c0 .4.1.9.4 1.2.2.3.5.5.6.8v11.9c0 .6.2 1.3.9 1.5h.5c.7-.2.9-.9.9-1.5V14.5c.1-.4.4-.6.6-.8.1-.3.2-.8.2-1.2zM19.9 8.9c-.2-.6-.6-1.4-1.2-1.7-.2-.1-.3-.2-.5-.2h-.6c-.2 0-.4.1-.5.2-.6.4-1 1.1-1.2 1.7-.3.7-.3 2.6-.2 3.3.2 1 .7 1.8 1.3 2.3v12.1c0 .5.2 1.1.8 1.3h.5c.7-.2.8-.8.8-1.4v-12c.6-.5 1.1-1.3 1.3-2.3-.2-.7-.3-2.5-.5-3.3zM24.9 7.5c0-.3-.2-.5-.5-.5-.5.1-.7.8-.9 1.2-.2.6-1.5 6.9-1.5 7.8.1.8.7 1.4.7 2.5v8.3c0 .5.2 1.1.8 1.3h.5c.7-.2.8-.8.8-1.4.1-.2.1-19 .1-19.2z"/></g></svg>