<svg xmlns="http://www.w3.org/2000/svg" width="28" height="24" viewBox="0 0 28 24"><path d="M3.1 13.5h4.5v7.3H3.1z"/><ellipse cx="5.4" cy="9.8" rx="2.5" ry="2.5"/><path d="M16.1 0H0v24h16.1c3.5 0 6.3-.9 8.3-2.6 2.4-2 3.6-5.2 3.6-9.4 0-2-.3-3.9-1-5.4-.6-1.5-1.5-2.8-2.7-3.8C22.4 1 19.5.1 16.1 0zm-.3 1.6c3.1 0 5.7.8 7.5 2.4 2 1.8 3.1 4.5 3.1 8 0 7-3.5 10.4-10.6 10.4H1.6V1.6h14.2z"/><g fill="#CD0067"><path d="M10.7 11.3c.1 0 .2-.1.3-.1.1-.1.1-.2.2-.3.1-.2.1-.4.1-.7 0-.3 0-.5-.1-.7-.1-.3-.2-.4-.3-.5-.1-.1-.2-.1-.3-.2h-1v2.5h1.1zM18.6 10.4h.8c-.1-.2-.3-.8-.4-1.1-.1.3-.3.9-.4 1.1zM21.8 12.3V7.9h1.1v3.4h2c-.4-6.1-5.2-7.8-9.8-7.8H9.7v4.4h.6c.4 0 .6 0 .8.1.3.1.5.2.7.4.2.2.3.4.4.7.1.3.1.6.1 1s0 .7-.1.9c-.1.3-.3.6-.5.8-.2.2-.4.3-.6.4-.2.1-.5.1-.8.1h-.6v8.6h5.5c4.7 0 9.8-1.4 9.8-8.6h-3.2zm-5.3 0h-3.4V7.9h3.4v.9h-2.3v.7h2.1v.9h-2.1v.9h2.4v1zm3.7 0s-.3-.8-.4-.9h-1.5c0 .1-.4.9-.4.9h-1.2l1.7-4.4h1.1l1.8 4.4h-1.1z"/></g></svg>