<svg xmlns="http://www.w3.org/2000/svg" width="42" height="25" viewBox="0 0 42 25"><path fill-rule="evenodd" clip-rule="evenodd" fill="#FAB31E" d="M21 21.8c2.2 2 5.2 3.2 8.4 3.2 7 0 12.6-5.6 12.6-12.5S36.4 0 29.4 0c-3.2 0-6.2 1.2-8.4 3.2-2.5 2.3-4.1 5.6-4.1 9.3 0 3.7 1.6 7 4.1 9.3z"/><path fill-rule="evenodd" clip-rule="evenodd" fill="#E40520" d="M25.1 11.2c0-.5-.1-.9-.2-1.3h-7.7c.1-.5.2-.9.3-1.3h7c-.2-.5-.3-.9-.5-1.3h-5.9c.2-.5.5-.9.7-1.3h4.5c-.3-.5-.6-.9-1-1.3h-2.5c.4-.5.8-.9 1.3-1.3-2.2-2-5.2-3.2-8.4-3.2C5.6 0 0 5.6 0 12.5S5.6 25 12.6 25c3.3 0 6.2-1.2 8.4-3.2.5-.4.9-.8 1.3-1.3h-2.5c-.3-.4-.7-.9-1-1.3h4.5c.3-.4.5-.9.7-1.3h-5.9c-.2-.4-.4-.9-.5-1.3h7c.2-.4.3-.9.4-1.3.1-.4.2-.9.2-1.3s.1-.9.1-1.3-.2-1.1-.2-1.5z"/><g fill-rule="evenodd" clip-rule="evenodd" fill="#fff"><path d="M26.1 13c0-1.4.7-2.4 1.7-2.4.4 0 .7.1 1.2.3l.2-1.4c-.1 0-.2-.1-.3-.1l-.5-.1c-.2 0-.4-.1-.6-.1-1.8 0-3.1 1.6-3.1 3.8 0 1.7.9 2.7 2.4 2.7.4 0 .7-.1 1.2-.2l.2-1.4c-.4.2-.8.3-1.2.3-.7.2-1.2-.4-1.2-1.4zM24.9 10.6h-.1c-.5 0-.7.2-1.1.8l.1-.8h-1.2l-.8 5.1h1.4c.5-3.2.6-3.7 1.3-3.7h.1c0-.5.2-1 .3-1.4zM16.8 11.9h.7l.2-1.3H17l.2-.8h-1.3l-.6 3.5-.1.4-.1.5v.5c0 .8.4 1.1 1.1 1.1.3 0 .6 0 1-.2l.2-1.1H17c-.3 0-.5-.1-.5-.4v-.2l.3-2zM13.9 11.7c.3 0 .6 0 1 .1l.2-1.2c-.3-.1-.9-.1-1.2-.1-1.5 0-2.1.8-2 1.7 0 .6.3 1.1 1 1.4.6.3.7.3.7.6s-.2.5-.8.5c-.4 0-.8-.1-1.2-.2l-.2 1.2h1.4c1.4 0 2.1-.5 2.1-1.7 0-.7-.3-1.1-1-1.4-.6-.3-.7-.3-.7-.6 0-.1.3-.3.7-.3zM39.4 9.4l-.3 1.8c-.4-.5-.8-.7-1.3-.7-1.2 0-2.2 1.5-2.2 3.2 0 1.3.7 2.1 1.7 2.1.5 0 .9-.2 1.3-.6l-.1.5h1.3l1-6.3h-1.4zm-1.7 5.2c-.5 0-.7-.3-.7-1 0-1 .5-1.7 1.1-1.7.5 0 .7.3.7 1 0 .9-.4 1.7-1.1 1.7zM21.6 13.6c.1-.5.2-.9.2-1.3 0-1.1-.7-1.9-1.8-1.9-1.4 0-2.4 1.3-2.4 3.1 0 1.5.8 2.3 2.3 2.3.5 0 .9-.1 1.4-.2l.2-1.3c-.5.2-.9.3-1.4.3-.8 0-1.2-.3-1.2-.9v-.1h2.7zm-1.8-1.9c.4 0 .7.2.7.7v.3H19c.1-.7.4-1 .8-1zM5.6 9.4l-1.3 4-.1-4H2.3l-1.1 6.4h1.3l.8-4.9.1 4.9h.9l1.8-4.9-.8 4.9h1.4l1-6.4zM11.5 12c0-1-.6-1.5-1.8-1.5-.5 0-1 .1-1.6.3L7.9 12H8l.2-.1c.3-.1.7-.1 1.1-.1.6 0 .9.1.9.5v.3h-.6c-1.5 0-2.4.7-2.4 2 0 .8.5 1.4 1.2 1.4.6 0 1.1-.2 1.4-.6v.5H11V15l.3-1.8c.2-.7.2-.9.2-1.2zm-2.4 2.8c-.3 0-.5-.2-.5-.5 0-.5.4-.8 1.2-.8h.3c-.1.8-.5 1.3-1 1.3zM31.2 10.5c-.5 0-1 .1-1.6.3l-.2 1.2h.1l.2-.1c.3-.1.8-.1 1.1-.1.6 0 .9.1.9.5 0 .1 0 .2-.1.3h-.5c-1.5 0-2.4.7-2.4 2 0 .8.5 1.4 1.2 1.4.6 0 1.1-.2 1.4-.6v.5h1.1V15l.3-1.8c.1-.6.1-.8.1-1 .2-1.2-.4-1.7-1.6-1.7zm-.7 4.3c-.3 0-.5-.2-.5-.5 0-.5.4-.8 1.2-.8h.3c0 .8-.4 1.3-1 1.3zM35.7 12.1c.1-.6.3-1.1.5-1.5h-.1c-.5 0-.7.2-1.1.8l.1-.8h-1.2l-.9 5.2h1.3c.5-3.2.6-3.7 1.4-3.7-.1 0-.1 0 0 0z"/></g></svg>