<svg xmlns="http://www.w3.org/2000/svg" width="118" height="30" viewBox="0 0 118 30"><path fill="#009CDE" d="M91 7.9h-6.4c-.4 0-.8.3-.9.8l-2.6 16.5c-.1.3.2.6.5.6h3.3c.3 0 .6-.2.6-.5l.7-4.7c.1-.4.4-.8.9-.8h2c4.2 0 6.7-2.1 7.3-6.1.3-1.8 0-3.2-.8-4.2S93.2 7.9 91 7.9m.8 6.1c-.4 2.3-2.1 2.3-3.8 2.3h-1l.7-4.3c0-.3.3-.5.5-.5h.4c1.2 0 2.3 0 2.8.7.4.4.5 1 .4 1.8"/><path fill="#003087" d="M45 7.9h-6.4c-.4 0-.8.3-.9.8l-2.6 16.5c-.1.3.2.6.5.6h3.1c.4 0 .8-.3.9-.8l.7-4.5c.1-.4.4-.8.9-.8h2c4.2 0 6.7-2.1 7.3-6.1.3-1.8 0-3.2-.8-4.2-.9-.9-2.5-1.5-4.7-1.5m.8 6.1c-.4 2.3-2.1 2.3-3.8 2.3h-1l.7-4.3c0-.3.3-.5.5-.5h.4c1.2 0 2.3 0 2.8.7.4.4.5 1 .4 1.8M64.3 13.9h-3.1c-.3 0-.5.2-.5.5l-.1.9-.2-.3c-.7-1-2.2-1.3-3.6-1.3-3.4 0-6.3 2.6-6.9 6.2-.3 1.8.1 3.5 1.2 4.7.9 1.1 2.3 1.6 3.9 1.6 2.8 0 4.3-1.8 4.3-1.8l-.3.8c-.1.3.2.6.5.6h2.8c.4 0 .8-.3.9-.8l1.7-10.6c0-.2-.3-.5-.6-.5m-4.3 6c-.3 1.8-1.7 2.9-3.5 2.9-.9 0-1.6-.3-2.1-.8s-.6-1.3-.5-2.2c.3-1.7 1.7-3 3.5-3 .9 0 1.6.3 2.1.8.5.7.7 1.5.5 2.3"/><path fill="#009CDE" d="M110.3 13.9h-3.1c-.3 0-.5.2-.5.5l-.1.9-.2-.3c-.7-1-2.2-1.3-3.6-1.3-3.4 0-6.3 2.6-6.9 6.2-.3 1.8.1 3.5 1.1 4.7.9 1.1 2.3 1.6 3.9 1.6 2.8 0 4.3-1.8 4.3-1.8l-.1.9c-.1.3.2.6.5.6h2.8c.4 0 .8-.3.9-.8l1.7-10.6c-.1-.3-.4-.6-.7-.6m-4.3 6c-.3 1.8-1.7 2.9-3.5 2.9-.9 0-1.6-.3-2.1-.8s-.6-1.3-.5-2.2c.3-1.7 1.7-3 3.5-3 .9 0 1.6.3 2.1.8.5.7.6 1.5.5 2.3"/><path fill="#003087" d="M80.8 13.9h-3.1c-.3 0-.6.1-.7.4l-4.3 6.3-1.8-6c-.1-.4-.5-.6-.9-.6h-3c-.4 0-.6.4-.5.7l3.4 10-3.2 4.5c-.3.4 0 .8.4.8h3.1c.3 0 .6-.1.7-.4l10.3-14.9c.3-.3 0-.8-.4-.8"/><path fill="#009CDE" d="M114 8.4l-2.6 16.8c-.1.3.2.6.5.6h2.7c.4 0 .8-.3.9-.8L118 8.6c.1-.3-.2-.6-.5-.6h-3c-.3 0-.5.1-.5.4"/><path fill="#003087" d="M21.7 2.3C20.3.7 17.8 0 14.6 0H5.2C4.6 0 4 .5 3.9 1.1L0 25.7c-.1.5.3.9.8.9h5.8L8 17.5v.3c.1-.6.7-1.1 1.3-1.1H12c5.4 0 9.6-2.2 10.8-8.5 0-.2.1-.4.1-.5-.2-.1-.2-.1 0 0 .4-2.4.1-4-1.2-5.4"/><path fill="#009CDE" d="M23 7.6c0 .2-.1.4-.1.5-1.2 6.3-5.4 8.5-10.8 8.5H9.3c-.7 0-1.2.5-1.3 1.1l-1.4 8.9-.4 2.5c-.1.5.2.9.7.9h4.9c.6 0 1.1-.4 1.2-1v-.2l.9-5.8.1-.3c.1-.6.6-1 1.2-1h.7c4.7 0 8.4-1.9 9.5-7.4.5-2.3.2-4.2-1-5.6-.5-.5-.9-.8-1.4-1.1"/><path fill="#012169" d="M21.7 7.1c-.2 0-.4-.1-.6-.1-.2 0-.4-.1-.6-.1-.7-.1-1.5-.2-2.4-.2h-7.3c-.2 0-.4 0-.5.1-.4.1-.7.5-.7.9L8 17.5v.3c.1-.6.7-1.1 1.3-1.1H12c5.4 0 9.6-2.2 10.8-8.5 0-.2.1-.4.1-.5-.3-.2-.6-.3-1-.4 0-.1-.1-.2-.2-.2"/></svg>