<svg xmlns="http://www.w3.org/2000/svg" width="58.5" height="18" viewBox="0 0 58.5 18"><g fill-rule="evenodd" clip-rule="evenodd"><path fill="#005098" d="M20.6 17.7l3-17.4h4.7l-3 17.4h-4.7zM42.5.7c-.9-.3-2.4-.7-4.2-.7-4.7 0-8 2.4-8 5.8 0 2.5 2.4 3.9 4.1 4.7 1.8.9 2.5 1.4 2.4 2.2 0 1.2-1.5 1.7-2.8 1.7-1.9 0-2.9-.3-4.5-.9l-.5-.3-.6 3.9c1.1.5 3.1.9 5.3.9 5 0 8.2-2.3 8.2-6 0-2-1.2-3.5-4-4.7-1.7-.8-2.7-1.3-2.7-2.1 0-.7.9-1.5 2.7-1.5 1.6 0 2.7.3 3.5.7l.4.2.7-3.9zM54.7.3H51c-1.1 0-2 .3-2.5 1.4l-7 16h5s.8-2.2 1-2.6h6.1c.1.6.6 2.6.6 2.6h4.4L54.7.3zm-5.9 11.3c.4-1 1.9-4.9 1.9-4.9s.4-1 .6-1.7l.3 1.5s.9 4.2 1.1 5h-3.9v.1zM16.6.3L12 12.2l-.5-2.4C10.6 7 7.9 4 4.9 2.5l4.2 15.3h5L21.6.4h-5V.3z"/><path fill="#F7A600" d="M7.7.3H0v.4c5.9 1.4 9.9 4.9 11.5 9.1l-1.7-8C9.5.7 8.7.3 7.7.3z"/></g></svg>