<svg xmlns="http://www.w3.org/2000/svg"><symbol id="icon-amex" viewBox="0 0 40.2 40"><path fill="#0978AF" d="M40.2 25.9c0-.4-.1-.6-.2-.9V0H0v40h40V26.8c.1-.3.2-.5.2-.9z"/><path fill="#fff" d="M29.4 15.4l-.8 1.9h1.6zM2.1 17.3h1.5l-.8-1.9zM20.5 16.6c.1-.1.2-.2.2-.4s-.1-.3-.2-.4c-.1-.1-.3-.1-.5-.1h-1.4v1H20c.1 0 .3 0 .5-.1zM10.1 19.4v.8h9.4v-1.7h.2c.1 0 .2 0 .2.2v1.5h4.8v-.4c.4.2 1 .4 1.8.4h2l.4-1h1l.4 1h3.9v-1l.6 1H38v-6.5h-3.1v.8l-.4-.8h-3.2v.8l-.4-.8h-4.3c-.7 0-1.4.1-1.9.4v-.4h-3v.4c-.3-.3-.8-.4-1.3-.4H9.6l-.7 1.7-.8-1.7H4.7v.8l-.4-.8H1.4L0 16.8v3.4h1.9l.4-1h1l.4 1h3.8v-.8l.3.8h2l.3-.8zm14.8-4.2c.4-.4.9-.5 1.7-.5h1.1v1h-1.1c-.4 0-.6.1-.9.3-.2.2-.3.6-.3 1.1s.1.9.3 1.1c.2.2.5.2.8.2h.5l1.6-3.7h1.7l1.9 4.4v-4.4h1.7l2 3.3v-3.3H37v4.7h-1.6l-2.1-3.5v3.5H31l-.4-1h-2.3l-.4 1h-1.3c-.5 0-1.2-.1-1.6-.5-.4-.4-.6-.9-.6-1.8-.1-.8 0-1.4.5-1.9zm-2.3-.6h1.1v4.7h-1.1v-4.7zm-5.2 0H20c.6 0 1 0 1.4.2.4.2.6.5.6 1 0 .7-.5 1.1-.8 1.2.2.1.5.3.6.4.2.2.2.4.2.9v.9h-1.1v-.6c0-.3 0-.7-.2-.9-.2-.2-.4-.2-.8-.2h-1.2v1.7h-1.1v-4.6h-.2zm-4.5 0h3.7v1H14v.8h2.6v1H14v.9h2.6v1h-3.7v-4.7zm-4.6 4.7l-1.6-3.7v3.7H4.4l-.4-1H1.7l-.4 1H0l2-4.7h1.7L5.6 19v-4.4h1.8l1.5 3.2 1.3-3.2h1.9v4.7H11v-3.7l-1.6 3.7H8.3z"/><g fill="#fff"><path d="M20 23.7h-1.5v1.2H20c.4 0 .7-.2.7-.6 0-.5-.3-.6-.7-.6zM38 23.7c-.2 0-.3 0-.5.1-.1.1-.2.2-.2.3 0 .2.1.3.2.3s.2.1.4.1h.6c.6 0 1 .1 1.3.4l.2.1v-1.3h-2zM17.4 27v-3.8l-1.7 1.9zM10.2 23.7v.8h2.5v1h-2.5v.9H13l1.2-1.4-1.2-1.3zM25.4 23.8c-.1-.1-.3-.1-.5-.1h-1.4v1.1h1.4c.2 0 .4 0 .6-.1.1-.1.2-.3.2-.5s-.1-.4-.3-.4zM38.5 27.4h-2.2v-1h2.2c.2 0 .4 0 .5-.1.1-.1.1-.2.1-.3s-.1-.2-.1-.3c-.1-.1-.2-.1-.4-.1-1.1 0-2.4 0-2.4-1.5 0-.7.4-1.4 1.6-1.4H40v-.9h-2.1c-.6 0-1.1.2-1.4.4v-.4h-3.1c-.5 0-1.1.102-1.3.4v-.4h-5.5v.4c-.4-.3-1.2-.4-1.5-.4h-3.6v.4c-.3-.3-1.1-.4-1.6-.4h-4l-.9 1-.9-1h-6v6.5H14l1-1 .9 1h3.7v-1.5h.4c.5 0 1.1 0 1.6-.2v1.8h3v-1.7h.1c.2 0 .2 0 .2.2v1.5h9.2c.6 0 1.2-.1 1.5-.4v.4h2.9c.6 0 1.2-.1 1.6-.3v-1.2c-.4.3-.9.5-1.6.5zm-18.6-1.6h-1.4v1.6h-2.2L15 25.8l-1.4 1.6H9.1v-4.7h4.5l1.4 1.5 1.4-1.5H20c.9 0 1.9.2 1.9 1.5 0 1.4-1 1.6-2 1.6zm6.8-.2c.2.2.2.4.2.9v.9h-1.1v-.6c0-.3 0-.7-.2-.9-.2-.2-.4-.2-.8-.2h-1.2v1.7h-1.1v-4.7H25c.6 0 1 0 1.3.2.4.2.6.5.6 1 0 .7-.5 1.1-.8 1.2.3.2.5.4.6.5zm4.6-1.9h-2.6v.9h2.6v1h-2.6v.9h2.6v1h-3.7v-4.7h3.7v.9zm2.8 3.7h-2.2v-1h2.2c.2 0 .4 0 .5-.1.1-.1.1-.2.1-.3s-.1-.2-.1-.3c-.1-.1-.2-.1-.4-.1-1 0-2.4 0-2.4-1.5 0-.7.4-1.4 1.6-1.4h2.2v1h-2.1c-.2 0-.3 0-.4.1-.1.1-.1.2-.1.3 0 .2.1.3.2.3s.2.1.4.1h.6c.6 0 1 .1 1.3.4.2.2.3.5.3 1 .1 1-.5 1.5-1.7 1.5z"/></g></symbol><symbol id="icon-basket" viewBox="0 0 59.999 60.183"><g><ellipse opacity=".05" cx="30" cy="56.682" rx="30" ry="3.501"/><ellipse opacity=".05" cx="30" cy="56.682" rx="27.499" ry="2.801"/><ellipse opacity=".15" cx="29.999" cy="56.682" rx="25" ry="2.101"/><path opacity=".2" d="M52.5 56.682c0 .773-10.078 1.4-22.5 1.4-12.427 0-22.5-.627-22.5-1.4 0-.77 10.073-1.4 22.5-1.4 12.422 0 22.5.628 22.5 1.4z"/><linearGradient id="a" gradientUnits="userSpaceOnUse" x1="19.517" y1="5.141" x2="40.698" y2="5.141"><stop offset=".1" stop-color="#AFB2B6"/><stop offset=".25" stop-color="#EBECED"/><stop offset=".75" stop-color="#EBECED"/><stop offset=".9" stop-color="#AFB2B6"/></linearGradient><path fill="url(#a)" d="M37.22 0H23l-3.483 3.73v6.552h3.328v-6.55H37.47v6.55h3.228v-6.55z"/><linearGradient id="b" gradientUnits="userSpaceOnUse" x1="39.087" y1="10.28" x2="39.087" y2=".241"><stop offset="0" stop-color="#AFB2B6"/><stop offset=".328" stop-color="#D8DADC"/><stop offset=".713" stop-color="#DCDDDF"/><stop offset="1" stop-color="#F8F8F9"/></linearGradient><path fill="url(#b)" d="M37.226.004V10.53h3.722V3.727z"/><linearGradient id="c" gradientUnits="userSpaceOnUse" x1="21.22" y1="10.28" x2="21.22" y2=".237"><stop offset="0" stop-color="#AFB2B6"/><stop offset=".328" stop-color="#D8DADC"/><stop offset=".713" stop-color="#DCDDDF"/><stop offset="1" stop-color="#F8F8F9"/></linearGradient><path fill="url(#c)" d="M22.972.02L19.367 3.73v6.8h3.705z"/><linearGradient id="d" gradientUnits="userSpaceOnUse" x1="29.975" y1="56.685" x2="29.975" y2="9.83"><stop offset="0" stop-color="#CBCBCB"/><stop offset=".414" stop-color="#F0F0F0"/></linearGradient><path fill="url(#d)" d="M51.583 11.83l-4.117-2H13.3l-4.91 2.3-.042 44.555h43.255l-.02-44.855z"/><linearGradient id="e" gradientUnits="userSpaceOnUse" x1="30.212" y1="40.568" x2="30.212" y2="20.571"><stop offset="0" stop-color="#A1A1A1"/><stop offset="1" stop-color="#BCBCBC"/></linearGradient><path fill="url(#e)" d="M30.22 20.57c-5.57 0-9.966 4.47-9.966 10.04s4.396 9.958 9.966 9.958c5.572 0 9.95-4.387 9.95-9.957s-4.378-10.04-9.95-10.04zm-.067 17.207v.02l-.002-.01v.01-.02c-.552-5.68-7.116-11.375-7.116-11.375 4.583 0 7.088 4.86 7.117 4.914.03-.053 2.535-4.914 7.117-4.914 0 0-6.564 5.696-7.114 11.375z"/><linearGradient id="f" gradientUnits="userSpaceOnUse" x1="10.823" y1="56.685" x2="10.823" y2="9.831"><stop offset="0" stop-color="#CBCBCB"/><stop offset=".874" stop-color="#E6E6E6"/></linearGradient><path fill="url(#f)" d="M13.3 9.83l-4.91 2.3-.042 44.555h3.62l1.33-46.855z"/><linearGradient id="g" gradientUnits="userSpaceOnUse" x1="49.534" y1="56.685" x2="49.534" y2="9.83"><stop offset="0" stop-color="#CBCBCB"/><stop offset=".654" stop-color="#E6E6E6"/></linearGradient><path fill="url(#g)" d="M47.84 56.685h3.763l-.02-44.855-4.117-2z"/></g></symbol><symbol id="icon-icon1" viewBox="0 0 35 35"><circle fill="#B5066E" cx="17.5" cy="17.5" r="17.5"/><path fill="#F90997" d="M24.4 9.6c0-.7-.6-1.3-1.3-1.3h-1.8c-.4 0-.7.1-.9.4l-2-1.7c-.2-.2-.5-.3-.9-.3-.3 0-.6.1-.9.3L7 15.3c-.4.4-.6 1-.4 1.5.2.5.7.9 1.2.9H9c.1 0 .1 0 .1.1v7.4c0 .7.6 1.3 1.3 1.3h4c.7 0 1.3-.6 1.3-1.3v-4.6c0-.1.1-.2.2-.2h3c.1 0 .2.1.2.2v4.6c0 .7.6 1.3 1.3 1.3h4c.7 0 1.3-.6 1.3-1.3v-7.4c0-.1 0-.1.1-.1H27c.6 0 1.1-.3 1.2-.9.2-.5 0-1.1-.4-1.5l-3.6-3.1V9.6z"/></symbol><symbol id="icon-icon2" viewBox="0 0 35 35"><circle fill="#B90000" cx="17.5" cy="17.5" r="17.5"/><g fill="#f00"><path d="M13.8 12.5V7.3c0-.2-.1-.3-.3-.3-.2 0-.3.1-.3.3v4.1c0 .2-.1.3-.3.3-.2 0-.3-.1-.3-.3V7.3c0-.2-.1-.3-.3-.3-.1 0-.3.1-.3.3v4.1c0 .2-.1.3-.3.3-.2 0-.3-.1-.3-.3V7.3c0-.2-.1-.3-.3-.3-.2 0-.3.1-.3.3v4.1c0 .2-.1.3-.3.3-.2 0-.3-.1-.3-.3V7.3c.1-.2-.1-.3-.2-.3-.2 0-.3.1-.3.3v5.2c0 .4.1.9.4 1.2.2.3.5.5.6.8v11.9c0 .6.2 1.3.9 1.5h.5c.7-.2.9-.9.9-1.5V14.5c.1-.4.4-.6.6-.8.1-.3.2-.8.2-1.2zM19.9 8.9c-.2-.6-.6-1.4-1.2-1.7-.2-.1-.3-.2-.5-.2h-.6c-.2 0-.4.1-.5.2-.6.4-1 1.1-1.2 1.7-.3.7-.3 2.6-.2 3.3.2 1 .7 1.8 1.3 2.3v12.1c0 .5.2 1.1.8 1.3h.5c.7-.2.8-.8.8-1.4v-12c.6-.5 1.1-1.3 1.3-2.3-.2-.7-.3-2.5-.5-3.3zM24.9 7.5c0-.3-.2-.5-.5-.5-.5.1-.7.8-.9 1.2-.2.6-1.5 6.9-1.5 7.8.1.8.7 1.4.7 2.5v8.3c0 .5.2 1.1.8 1.3h.5c.7-.2.8-.8.8-1.4.1-.2.1-19 .1-19.2z"/></g></symbol><symbol id="icon-icon3" viewBox="0 0 35 35"><circle fill="#B36B16" cx="17.5" cy="17.5" r="17.5"/><path fill-rule="evenodd" clip-rule="evenodd" fill="#F7931E" d="M15.2 20l-2.6 7.2c-.3.7.1 1.6.9 1.8.7.3 1.6-.1 1.8-.9l2.1-5.8-2.2-2.3zm4.2-14.2c-1.2 0-2.3 1-2.3 2.3s1 2.3 2.3 2.3c1.2 0 2.3-1 2.3-2.3s-1-2.3-2.3-2.3zM19 18.7l2 2.3c.2.3.4.6.4.9l.2 5.7c0 .8-.6 1.5-1.4 1.5-.8 0-1.5-.6-1.5-1.4l-.2-5.2-2.5-2.8c-.7-.6-1-1.4-.8-2.3l.6-3.4-1.5.7-.7 2.8c-.1.6-.7.9-1.3.8-.6-.1-.9-.7-.8-1.3l.8-3.2c.1-.3.3-.6.6-.8l4.1-2c.7-.3 1.6-.3 2.1.1.6.4 1 1.2.8 2l-.8 4.5c0 .3-.1.7-.1 1.1zm2.1.6c.5.4 1.1.3 1.5-.1.4-.5.3-1.1-.1-1.5l-2.3-1.9-.4 2.4 1.3 1.1z"/></symbol><symbol id="icon-icon4" viewBox="0 0 35 35"><circle fill="#B99204" cx="17.5" cy="17.5" r="17.5"/><path fill="#FFCA05" d="M27.8 8.2H7.2c-.6 0-1.1.6-1.1 1.2V22c0 .7.5 1.2 1.1 1.2h7.6c2.8 1.1-.7 3.6-.7 3.6h7.1s-3.5-2.4-1-3.6h7.5c.6 0 1.1-.6 1.1-1.2V9.4c.1-.7-.4-1.2-1-1.2zm-10.3 15c-.3 0-.5-.2-.5-.5s.2-.5.5-.5.5.2.5.5-.2.5-.5.5zm10.4-1.4H7.2V9h20.7v12.8z"/></symbol><symbol id="icon-icon5" viewBox="0 0 35 35"><path fill="#668F2D" d="M35 17.5C35 27.2 27.2 35 17.5 35S0 27.2 0 17.5 7.8 0 17.5 0 35 7.8 35 17.5z"/><g fill="#8DC53E"><path d="M27 13.9c-.4-4.1-3.2-4.4-5.6-3.9-2 .5-3.9 1.5-3.9 1.6-.1 0-8.9-4.9-9.4 2.7 0 0-.1 1.8 1 4.3H13c.2 0 .4.1.5.3l.6.9 1-3.7c.1-.3.3-.5.6-.5s.5.2.6.5l.9 4 1.9-6.4c.1-.3.3-.5.6-.5s.5.2.6.5l1.5 5h4c1.4-2.8 1.2-4.8 1.2-4.8zM28.6 20.7H21.4c-.3 0-.5-.2-.6-.5l-1-3.4-2 6.7c-.1.3-.3.5-.6.5s-.5-.2-.6-.5l-.8-3.8-.7 2.5c-.1.2-.3.4-.5.5-.2 0-.5-.1-.6-.3l-1.2-1.8H6.2c-.3 0-.6.3-.6.6s.3.6.6.6h4.4c1.4 2 3.4 4.2 6.7 6.3.2.1.3.2.5.3 3.3-2.2 5.4-4.5 6.8-6.6h4c.3 0 .6-.3.6-.6.1-.3-.2-.5-.6-.5z"/></g></symbol><symbol id="icon-icon6" viewBox="0 0 35 35"><circle fill="#0471A4" cx="17.5" cy="17.5" r="17.5"/><path fill="#049CE3" d="M23.8 16.7c-2.1-3.3-4.2-6.5-6.3-9.7-2.1 3.2-4.3 6.4-6.3 9.7-2.3 3.7-.9 8.6 3 10.5 3.6 1.8 8.1.3 9.9-3.3 1.2-2.3 1-5-.3-7.2zm-7.6 3.2c0 1.2-.9 2.1-2.1 2.1-1.1 0-2.1-.9-2.1-2.1v-.2c0-.2 0-.3.1-.5.1-.6.4-1.1.7-1.6 1.3-2.2 2.8-4.3 4.2-6.4l.6-.9c-.7 3.8-1.4 9.4-1.4 9.6z"/></symbol><symbol id="icon-icon_bed_bath" viewBox="0 0 35 35"><circle fill="#0471A4" cx="17.5" cy="17.5" r="17.5"/><path fill="#049CE3" d="M23.8 16.7c-2.1-3.3-4.2-6.5-6.3-9.7-2.1 3.2-4.3 6.4-6.3 9.7-2.3 3.7-.9 8.6 3 10.5 3.6 1.8 8.1.3 9.9-3.3 1.2-2.3 1-5-.3-7.2zm-7.6 3.2c0 1.2-.9 2.1-2.1 2.1-1.1 0-2.1-.9-2.1-2.1v-.2c0-.2 0-.3.1-.5.1-.6.4-1.1.7-1.6 1.3-2.2 2.8-4.3 4.2-6.4l.6-.9c-.7 3.8-1.4 9.4-1.4 9.6z"/></symbol><symbol id="icon-icon_health_fitness" viewBox="0 0 35 35"><path fill="#668F2D" d="M35 17.5C35 27.2 27.2 35 17.5 35S0 27.2 0 17.5 7.8 0 17.5 0 35 7.8 35 17.5z"/><g fill="#8DC53E"><path d="M27 13.9c-.4-4.1-3.2-4.4-5.6-3.9-2 .5-3.9 1.5-3.9 1.6-.1 0-8.9-4.9-9.4 2.7 0 0-.1 1.8 1 4.3H13c.2 0 .4.1.5.3l.6.9 1-3.7c.1-.3.3-.5.6-.5s.5.2.6.5l.9 4 1.9-6.4c.1-.3.3-.5.6-.5s.5.2.6.5l1.5 5h4c1.4-2.8 1.2-4.8 1.2-4.8zM28.6 20.7H21.4c-.3 0-.5-.2-.6-.5l-1-3.4-2 6.7c-.1.3-.3.5-.6.5s-.5-.2-.6-.5l-.8-3.8-.7 2.5c-.1.2-.3.4-.5.5-.2 0-.5-.1-.6-.3l-1.2-1.8H6.2c-.3 0-.6.3-.6.6s.3.6.6.6h4.4c1.4 2 3.4 4.2 6.7 6.3.2.1.3.2.5.3 3.3-2.2 5.4-4.5 6.8-6.6h4c.3 0 .6-.3.6-.6.1-.3-.2-.5-.6-.5z"/></g></symbol><symbol id="icon-icon_household_living" viewBox="0 0 35 35"><circle fill="#B5066E" cx="17.5" cy="17.5" r="17.5"/><path fill="#F90997" d="M24.4 9.6c0-.7-.6-1.3-1.3-1.3h-1.8c-.4 0-.7.1-.9.4l-2-1.7c-.2-.2-.5-.3-.9-.3-.3 0-.6.1-.9.3L7 15.3c-.4.4-.6 1-.4 1.5.2.5.7.9 1.2.9H9c.1 0 .1 0 .1.1v7.4c0 .7.6 1.3 1.3 1.3h4c.7 0 1.3-.6 1.3-1.3v-4.6c0-.1.1-.2.2-.2h3c.1 0 .2.1.2.2v4.6c0 .7.6 1.3 1.3 1.3h4c.7 0 1.3-.6 1.3-1.3v-7.4c0-.1 0-.1.1-.1H27c.6 0 1.1-.3 1.2-.9.2-.5 0-1.1-.4-1.5l-3.6-3.1V9.6z"/></symbol><symbol id="icon-icon_kitchen_dining" viewBox="0 0 35 35"><circle fill="#B90000" cx="17.5" cy="17.5" r="17.5"/><g fill="#f00"><path d="M13.8 12.5V7.3c0-.2-.1-.3-.3-.3-.2 0-.3.1-.3.3v4.1c0 .2-.1.3-.3.3-.2 0-.3-.1-.3-.3V7.3c0-.2-.1-.3-.3-.3-.1 0-.3.1-.3.3v4.1c0 .2-.1.3-.3.3-.2 0-.3-.1-.3-.3V7.3c0-.2-.1-.3-.3-.3-.2 0-.3.1-.3.3v4.1c0 .2-.1.3-.3.3-.2 0-.3-.1-.3-.3V7.3c.1-.2-.1-.3-.2-.3-.2 0-.3.1-.3.3v5.2c0 .4.1.9.4 1.2.2.3.5.5.6.8v11.9c0 .6.2 1.3.9 1.5h.5c.7-.2.9-.9.9-1.5V14.5c.1-.4.4-.6.6-.8.1-.3.2-.8.2-1.2zM19.9 8.9c-.2-.6-.6-1.4-1.2-1.7-.2-.1-.3-.2-.5-.2h-.6c-.2 0-.4.1-.5.2-.6.4-1 1.1-1.2 1.7-.3.7-.3 2.6-.2 3.3.2 1 .7 1.8 1.3 2.3v12.1c0 .5.2 1.1.8 1.3h.5c.7-.2.8-.8.8-1.4v-12c.6-.5 1.1-1.3 1.3-2.3-.2-.7-.3-2.5-.5-3.3zM24.9 7.5c0-.3-.2-.5-.5-.5-.5.1-.7.8-.9 1.2-.2.6-1.5 6.9-1.5 7.8.1.8.7 1.4.7 2.5v8.3c0 .5.2 1.1.8 1.3h.5c.7-.2.8-.8.8-1.4.1-.2.1-19 .1-19.2z"/></g></symbol><symbol id="icon-icon_mobility" viewBox="0 0 35 35"><circle fill="#B36B16" cx="17.5" cy="17.5" r="17.5"/><path fill-rule="evenodd" clip-rule="evenodd" fill="#F7931E" d="M15.2 20l-2.6 7.2c-.3.7.1 1.6.9 1.8.7.3 1.6-.1 1.8-.9l2.1-5.8-2.2-2.3zm4.2-14.2c-1.2 0-2.3 1-2.3 2.3s1 2.3 2.3 2.3c1.2 0 2.3-1 2.3-2.3s-1-2.3-2.3-2.3zM19 18.7l2 2.3c.2.3.4.6.4.9l.2 5.7c0 .8-.6 1.5-1.4 1.5-.8 0-1.5-.6-1.5-1.4l-.2-5.2-2.5-2.8c-.7-.6-1-1.4-.8-2.3l.6-3.4-1.5.7-.7 2.8c-.1.6-.7.9-1.3.8-.6-.1-.9-.7-.8-1.3l.8-3.2c.1-.3.3-.6.6-.8l4.1-2c.7-.3 1.6-.3 2.1.1.6.4 1 1.2.8 2l-.8 4.5c0 .3-.1.7-.1 1.1zm2.1.6c.5.4 1.1.3 1.5-.1.4-.5.3-1.1-.1-1.5l-2.3-1.9-.4 2.4 1.3 1.1z"/></symbol><symbol id="icon-icon_office_leisure" viewBox="0 0 35 35"><circle fill="#B99204" cx="17.5" cy="17.5" r="17.5"/><path fill="#FFCA05" d="M27.8 8.2H7.2c-.6 0-1.1.6-1.1 1.2V22c0 .7.5 1.2 1.1 1.2h7.6c2.8 1.1-.7 3.6-.7 3.6h7.1s-3.5-2.4-1-3.6h7.5c.6 0 1.1-.6 1.1-1.2V9.4c.1-.7-.4-1.2-1-1.2zm-10.3 15c-.3 0-.5-.2-.5-.5s.2-.5.5-.5.5.2.5.5-.2.5-.5.5zm10.4-1.4H7.2V9h20.7v12.8z"/></symbol><symbol id="icon-ideal" viewBox="0 0 28 24"><path d="M3.1 13.5h4.5v7.3H3.1z"/><ellipse cx="5.4" cy="9.8" rx="2.5" ry="2.5"/><path d="M16.1 0H0v24h16.1c3.5 0 6.3-.9 8.3-2.6 2.4-2 3.6-5.2 3.6-9.4 0-2-.3-3.9-1-5.4-.6-1.5-1.5-2.8-2.7-3.8C22.4 1 19.5.1 16.1 0zm-.3 1.6c3.1 0 5.7.8 7.5 2.4 2 1.8 3.1 4.5 3.1 8 0 7-3.5 10.4-10.6 10.4H1.6V1.6h14.2z"/><g fill="#CD0067"><path d="M10.7 11.3c.1 0 .2-.1.3-.1.1-.1.1-.2.2-.3.1-.2.1-.4.1-.7 0-.3 0-.5-.1-.7-.1-.3-.2-.4-.3-.5-.1-.1-.2-.1-.3-.2h-1v2.5h1.1zM18.6 10.4h.8c-.1-.2-.3-.8-.4-1.1-.1.3-.3.9-.4 1.1zM21.8 12.3V7.9h1.1v3.4h2c-.4-6.1-5.2-7.8-9.8-7.8H9.7v4.4h.6c.4 0 .6 0 .8.1.3.1.5.2.7.4.2.2.3.4.4.7.1.3.1.6.1 1s0 .7-.1.9c-.1.3-.3.6-.5.8-.2.2-.4.3-.6.4-.2.1-.5.1-.8.1h-.6v8.6h5.5c4.7 0 9.8-1.4 9.8-8.6h-3.2zm-5.3 0h-3.4V7.9h3.4v.9h-2.3v.7h2.1v.9h-2.1v.9h2.4v1zm3.7 0s-.3-.8-.4-.9h-1.5c0 .1-.4.9-.4.9h-1.2l1.7-4.4h1.1l1.8 4.4h-1.1z"/></g></symbol><symbol id="icon-mastercard" viewBox="0 0 42 25"><path fill-rule="evenodd" clip-rule="evenodd" fill="#FAB31E" d="M21 21.8c2.2 2 5.2 3.2 8.4 3.2 7 0 12.6-5.6 12.6-12.5S36.4 0 29.4 0c-3.2 0-6.2 1.2-8.4 3.2-2.5 2.3-4.1 5.6-4.1 9.3 0 3.7 1.6 7 4.1 9.3z"/><path fill-rule="evenodd" clip-rule="evenodd" fill="#E40520" d="M25.1 11.2c0-.5-.1-.9-.2-1.3h-7.7c.1-.5.2-.9.3-1.3h7c-.2-.5-.3-.9-.5-1.3h-5.9c.2-.5.5-.9.7-1.3h4.5c-.3-.5-.6-.9-1-1.3h-2.5c.4-.5.8-.9 1.3-1.3-2.2-2-5.2-3.2-8.4-3.2C5.6 0 0 5.6 0 12.5S5.6 25 12.6 25c3.3 0 6.2-1.2 8.4-3.2.5-.4.9-.8 1.3-1.3h-2.5c-.3-.4-.7-.9-1-1.3h4.5c.3-.4.5-.9.7-1.3h-5.9c-.2-.4-.4-.9-.5-1.3h7c.2-.4.3-.9.4-1.3.1-.4.2-.9.2-1.3s.1-.9.1-1.3-.2-1.1-.2-1.5z"/><g fill-rule="evenodd" clip-rule="evenodd" fill="#fff"><path d="M26.1 13c0-1.4.7-2.4 1.7-2.4.4 0 .7.1 1.2.3l.2-1.4c-.1 0-.2-.1-.3-.1l-.5-.1c-.2 0-.4-.1-.6-.1-1.8 0-3.1 1.6-3.1 3.8 0 1.7.9 2.7 2.4 2.7.4 0 .7-.1 1.2-.2l.2-1.4c-.4.2-.8.3-1.2.3-.7.2-1.2-.4-1.2-1.4zM24.9 10.6h-.1c-.5 0-.7.2-1.1.8l.1-.8h-1.2l-.8 5.1h1.4c.5-3.2.6-3.7 1.3-3.7h.1c0-.5.2-1 .3-1.4zM16.8 11.9h.7l.2-1.3H17l.2-.8h-1.3l-.6 3.5-.1.4-.1.5v.5c0 .8.4 1.1 1.1 1.1.3 0 .6 0 1-.2l.2-1.1H17c-.3 0-.5-.1-.5-.4v-.2l.3-2zM13.9 11.7c.3 0 .6 0 1 .1l.2-1.2c-.3-.1-.9-.1-1.2-.1-1.5 0-2.1.8-2 1.7 0 .6.3 1.1 1 1.4.6.3.7.3.7.6s-.2.5-.8.5c-.4 0-.8-.1-1.2-.2l-.2 1.2h1.4c1.4 0 2.1-.5 2.1-1.7 0-.7-.3-1.1-1-1.4-.6-.3-.7-.3-.7-.6 0-.1.3-.3.7-.3zM39.4 9.4l-.3 1.8c-.4-.5-.8-.7-1.3-.7-1.2 0-2.2 1.5-2.2 3.2 0 1.3.7 2.1 1.7 2.1.5 0 .9-.2 1.3-.6l-.1.5h1.3l1-6.3h-1.4zm-1.7 5.2c-.5 0-.7-.3-.7-1 0-1 .5-1.7 1.1-1.7.5 0 .7.3.7 1 0 .9-.4 1.7-1.1 1.7zM21.6 13.6c.1-.5.2-.9.2-1.3 0-1.1-.7-1.9-1.8-1.9-1.4 0-2.4 1.3-2.4 3.1 0 1.5.8 2.3 2.3 2.3.5 0 .9-.1 1.4-.2l.2-1.3c-.5.2-.9.3-1.4.3-.8 0-1.2-.3-1.2-.9v-.1h2.7zm-1.8-1.9c.4 0 .7.2.7.7v.3H19c.1-.7.4-1 .8-1zM5.6 9.4l-1.3 4-.1-4H2.3l-1.1 6.4h1.3l.8-4.9.1 4.9h.9l1.8-4.9-.8 4.9h1.4l1-6.4zM11.5 12c0-1-.6-1.5-1.8-1.5-.5 0-1 .1-1.6.3L7.9 12H8l.2-.1c.3-.1.7-.1 1.1-.1.6 0 .9.1.9.5v.3h-.6c-1.5 0-2.4.7-2.4 2 0 .8.5 1.4 1.2 1.4.6 0 1.1-.2 1.4-.6v.5H11V15l.3-1.8c.2-.7.2-.9.2-1.2zm-2.4 2.8c-.3 0-.5-.2-.5-.5 0-.5.4-.8 1.2-.8h.3c-.1.8-.5 1.3-1 1.3zM31.2 10.5c-.5 0-1 .1-1.6.3l-.2 1.2h.1l.2-.1c.3-.1.8-.1 1.1-.1.6 0 .9.1.9.5 0 .1 0 .2-.1.3h-.5c-1.5 0-2.4.7-2.4 2 0 .8.5 1.4 1.2 1.4.6 0 1.1-.2 1.4-.6v.5h1.1V15l.3-1.8c.1-.6.1-.8.1-1 .2-1.2-.4-1.7-1.6-1.7zm-.7 4.3c-.3 0-.5-.2-.5-.5 0-.5.4-.8 1.2-.8h.3c0 .8-.4 1.3-1 1.3zM35.7 12.1c.1-.6.3-1.1.5-1.5h-.1c-.5 0-.7.2-1.1.8l.1-.8h-1.2l-.9 5.2h1.3c.5-3.2.6-3.7 1.4-3.7-.1 0-.1 0 0 0z"/></g></symbol><symbol id="icon-paypal" viewBox="0 0 118 30"><path fill="#009CDE" d="M91 7.9h-6.4c-.4 0-.8.3-.9.8l-2.6 16.5c-.1.3.2.6.5.6h3.3c.3 0 .6-.2.6-.5l.7-4.7c.1-.4.4-.8.9-.8h2c4.2 0 6.7-2.1 7.3-6.1.3-1.8 0-3.2-.8-4.2S93.2 7.9 91 7.9m.8 6.1c-.4 2.3-2.1 2.3-3.8 2.3h-1l.7-4.3c0-.3.3-.5.5-.5h.4c1.2 0 2.3 0 2.8.7.4.4.5 1 .4 1.8"/><path fill="#003087" d="M45 7.9h-6.4c-.4 0-.8.3-.9.8l-2.6 16.5c-.1.3.2.6.5.6h3.1c.4 0 .8-.3.9-.8l.7-4.5c.1-.4.4-.8.9-.8h2c4.2 0 6.7-2.1 7.3-6.1.3-1.8 0-3.2-.8-4.2-.9-.9-2.5-1.5-4.7-1.5m.8 6.1c-.4 2.3-2.1 2.3-3.8 2.3h-1l.7-4.3c0-.3.3-.5.5-.5h.4c1.2 0 2.3 0 2.8.7.4.4.5 1 .4 1.8M64.3 13.9h-3.1c-.3 0-.5.2-.5.5l-.1.9-.2-.3c-.7-1-2.2-1.3-3.6-1.3-3.4 0-6.3 2.6-6.9 6.2-.3 1.8.1 3.5 1.2 4.7.9 1.1 2.3 1.6 3.9 1.6 2.8 0 4.3-1.8 4.3-1.8l-.3.8c-.1.3.2.6.5.6h2.8c.4 0 .8-.3.9-.8l1.7-10.6c0-.2-.3-.5-.6-.5m-4.3 6c-.3 1.8-1.7 2.9-3.5 2.9-.9 0-1.6-.3-2.1-.8s-.6-1.3-.5-2.2c.3-1.7 1.7-3 3.5-3 .9 0 1.6.3 2.1.8.5.7.7 1.5.5 2.3"/><path fill="#009CDE" d="M110.3 13.9h-3.1c-.3 0-.5.2-.5.5l-.1.9-.2-.3c-.7-1-2.2-1.3-3.6-1.3-3.4 0-6.3 2.6-6.9 6.2-.3 1.8.1 3.5 1.1 4.7.9 1.1 2.3 1.6 3.9 1.6 2.8 0 4.3-1.8 4.3-1.8l-.1.9c-.1.3.2.6.5.6h2.8c.4 0 .8-.3.9-.8l1.7-10.6c-.1-.3-.4-.6-.7-.6m-4.3 6c-.3 1.8-1.7 2.9-3.5 2.9-.9 0-1.6-.3-2.1-.8s-.6-1.3-.5-2.2c.3-1.7 1.7-3 3.5-3 .9 0 1.6.3 2.1.8.5.7.6 1.5.5 2.3"/><path fill="#003087" d="M80.8 13.9h-3.1c-.3 0-.6.1-.7.4l-4.3 6.3-1.8-6c-.1-.4-.5-.6-.9-.6h-3c-.4 0-.6.4-.5.7l3.4 10-3.2 4.5c-.3.4 0 .8.4.8h3.1c.3 0 .6-.1.7-.4l10.3-14.9c.3-.3 0-.8-.4-.8"/><path fill="#009CDE" d="M114 8.4l-2.6 16.8c-.1.3.2.6.5.6h2.7c.4 0 .8-.3.9-.8L118 8.6c.1-.3-.2-.6-.5-.6h-3c-.3 0-.5.1-.5.4"/><path fill="#003087" d="M21.7 2.3C20.3.7 17.8 0 14.6 0H5.2C4.6 0 4 .5 3.9 1.1L0 25.7c-.1.5.3.9.8.9h5.8L8 17.5v.3c.1-.6.7-1.1 1.3-1.1H12c5.4 0 9.6-2.2 10.8-8.5 0-.2.1-.4.1-.5-.2-.1-.2-.1 0 0 .4-2.4.1-4-1.2-5.4"/><path fill="#009CDE" d="M23 7.6c0 .2-.1.4-.1.5-1.2 6.3-5.4 8.5-10.8 8.5H9.3c-.7 0-1.2.5-1.3 1.1l-1.4 8.9-.4 2.5c-.1.5.2.9.7.9h4.9c.6 0 1.1-.4 1.2-1v-.2l.9-5.8.1-.3c.1-.6.6-1 1.2-1h.7c4.7 0 8.4-1.9 9.5-7.4.5-2.3.2-4.2-1-5.6-.5-.5-.9-.8-1.4-1.1"/><path fill="#012169" d="M21.7 7.1c-.2 0-.4-.1-.6-.1-.2 0-.4-.1-.6-.1-.7-.1-1.5-.2-2.4-.2h-7.3c-.2 0-.4 0-.5.1-.4.1-.7.5-.7.9L8 17.5v.3c.1-.6.7-1.1 1.3-1.1H12c5.4 0 9.6-2.2 10.8-8.5 0-.2.1-.4.1-.5-.3-.2-.6-.3-1-.4 0-.1-.1-.2-.2-.2"/></symbol><symbol id="icon-visa" viewBox="0 0 58.5 18"><g fill-rule="evenodd" clip-rule="evenodd"><path fill="#005098" d="M20.6 17.7l3-17.4h4.7l-3 17.4h-4.7zM42.5.7c-.9-.3-2.4-.7-4.2-.7-4.7 0-8 2.4-8 5.8 0 2.5 2.4 3.9 4.1 4.7 1.8.9 2.5 1.4 2.4 2.2 0 1.2-1.5 1.7-2.8 1.7-1.9 0-2.9-.3-4.5-.9l-.5-.3-.6 3.9c1.1.5 3.1.9 5.3.9 5 0 8.2-2.3 8.2-6 0-2-1.2-3.5-4-4.7-1.7-.8-2.7-1.3-2.7-2.1 0-.7.9-1.5 2.7-1.5 1.6 0 2.7.3 3.5.7l.4.2.7-3.9zM54.7.3H51c-1.1 0-2 .3-2.5 1.4l-7 16h5s.8-2.2 1-2.6h6.1c.1.6.6 2.6.6 2.6h4.4L54.7.3zm-5.9 11.3c.4-1 1.9-4.9 1.9-4.9s.4-1 .6-1.7l.3 1.5s.9 4.2 1.1 5h-3.9v.1zM16.6.3L12 12.2l-.5-2.4C10.6 7 7.9 4 4.9 2.5l4.2 15.3h5L21.6.4h-5V.3z"/><path fill="#F7A600" d="M7.7.3H0v.4c5.9 1.4 9.9 4.9 11.5 9.1l-1.7-8C9.5.7 8.7.3 7.7.3z"/></g></symbol></svg>