<svg xmlns="http://www.w3.org/2000/svg"><symbol id="icon-arrow-right" viewBox="0 0 18.621 17.121"><g><path d="M10.06 17.12L7.94 15l6.44-6.44-6.44-6.44L10.06 0l8.56 8.56zM0 7.06h16.5v3H0z"/></g></symbol><symbol id="icon-basket" viewBox="0 0 59.999 60.183"><g><ellipse opacity=".05" cx="30" cy="56.682" rx="30" ry="3.501"/><ellipse opacity=".05" cx="30" cy="56.682" rx="27.499" ry="2.801"/><ellipse opacity=".15" cx="29.999" cy="56.682" rx="25" ry="2.101"/><path opacity=".2" d="M52.5 56.682c0 .773-10.078 1.4-22.5 1.4-12.427 0-22.5-.627-22.5-1.4 0-.77 10.073-1.4 22.5-1.4 12.422 0 22.5.628 22.5 1.4z"/><linearGradient id="a" gradientUnits="userSpaceOnUse" x1="19.517" y1="5.141" x2="40.698" y2="5.141"><stop offset=".1" stop-color="#AFB2B6"/><stop offset=".25" stop-color="#EBECED"/><stop offset=".75" stop-color="#EBECED"/><stop offset=".9" stop-color="#AFB2B6"/></linearGradient><path d="M37.22 0H23l-3.483 3.73v6.552h3.328v-6.55H37.47v6.55h3.228v-6.55z"/><linearGradient id="b" gradientUnits="userSpaceOnUse" x1="39.087" y1="10.28" x2="39.087" y2=".241"><stop offset="0" stop-color="#AFB2B6"/><stop offset=".328" stop-color="#D8DADC"/><stop offset=".713" stop-color="#DCDDDF"/><stop offset="1" stop-color="#F8F8F9"/></linearGradient><path d="M37.226.004V10.53h3.722V3.727z"/><linearGradient id="c" gradientUnits="userSpaceOnUse" x1="21.22" y1="10.28" x2="21.22" y2=".237"><stop offset="0" stop-color="#AFB2B6"/><stop offset=".328" stop-color="#D8DADC"/><stop offset=".713" stop-color="#DCDDDF"/><stop offset="1" stop-color="#F8F8F9"/></linearGradient><path d="M22.972.02L19.367 3.73v6.8h3.705z"/><linearGradient id="d" gradientUnits="userSpaceOnUse" x1="29.975" y1="56.685" x2="29.975" y2="9.83"><stop offset="0" stop-color="#CBCBCB"/><stop offset=".414" stop-color="#F0F0F0"/></linearGradient><path d="M51.583 11.83l-4.117-2H13.3l-4.91 2.3-.042 44.555h43.255l-.02-44.855z"/><linearGradient id="e" gradientUnits="userSpaceOnUse" x1="30.212" y1="40.568" x2="30.212" y2="20.571"><stop offset="0" stop-color="#A1A1A1"/><stop offset="1" stop-color="#BCBCBC"/></linearGradient><path d="M30.22 20.57c-5.57 0-9.966 4.47-9.966 10.04s4.396 9.958 9.966 9.958c5.572 0 9.95-4.387 9.95-9.957s-4.378-10.04-9.95-10.04zm-.067 17.207v.02l-.002-.01v.01-.02c-.552-5.68-7.116-11.375-7.116-11.375 4.583 0 7.088 4.86 7.117 4.914.03-.053 2.535-4.914 7.117-4.914 0 0-6.564 5.696-7.114 11.375z"/><linearGradient id="f" gradientUnits="userSpaceOnUse" x1="10.823" y1="56.685" x2="10.823" y2="9.831"><stop offset="0" stop-color="#CBCBCB"/><stop offset=".874" stop-color="#E6E6E6"/></linearGradient><path d="M13.3 9.83l-4.91 2.3-.042 44.555h3.62l1.33-46.855z"/><linearGradient id="g" gradientUnits="userSpaceOnUse" x1="49.534" y1="56.685" x2="49.534" y2="9.83"><stop offset="0" stop-color="#CBCBCB"/><stop offset=".654" stop-color="#E6E6E6"/></linearGradient><path d="M47.84 56.685h3.763l-.02-44.855-4.117-2z"/></g></symbol><symbol id="icon-check" viewBox="0 0 21 16.8"><path d="M10.5 16.8C9.69 8.476 0 0 0 0c6.714 0 10.46 7.27 10.5 7.35C10.544 7.27 14.283 0 21 0c0 0-3.432 3.006-6.78 7.748-3.512 4.968-3.72 9.052-3.72 9.052z"/></symbol><symbol id="icon-close" viewBox="0 0 12.728 12.728"><path d="M12.728 1.414L11.313 0l-4.95 4.95L1.414 0 0 1.414l4.95 4.95L0 11.314l1.414 1.414 4.95-4.95 4.95 4.95 1.414-1.415-4.95-4.95z"/></symbol><symbol id="icon-first" viewBox="0 0 26.121 17.121"><g><path d="M26.12 7.06H13.243l4.94-4.94L16.062 0 7.5 8.56l8.56 8.56L18.183 15l-4.94-4.94h12.88zM10.682 2.12L8.562 0 0 8.56l8.56 8.56L10.683 15l-6.44-6.44z"/></g></symbol><symbol id="icon-hamburger" viewBox="0 0 16 14"><g><path d="M0 0h16v2H0zM0 6h16v2H0zM0 12h16v2H0z"/></g></symbol><symbol id="icon-last" viewBox="0 0 26.121 17.121"><g><path d="M10.06 0L7.94 2.122l4.94 4.94H0v3h12.88L7.94 15l2.12 2.12 8.56-8.56zM17.56 0l-2.12 2.122 6.44 6.44L15.44 15l2.12 2.12 8.56-8.56z"/></g></symbol><symbol id="icon-logo" viewBox="0 0 243.561 43.879"><g><path d="M72.97 26.954L64.945 12.33l-.126-.226h-4.794L71.31 31.946h3.206L85.24 12.104h-4.472zM94.798 12.135h3.738v19.81h-3.738zM107.598 15.818h9.013v16.128h3.815V15.818h8.867v-3.715h-21.694zM138.457 12.104h3.937V31.91h-3.937zM157.187 12.07h-3.71v19.845h17.727v-3.843h-14.017zM179.346 12.07h3.75v19.81h-3.75zM191.36 15.756h8.89v16.127h3.904V15.756h8.96v-3.72H191.36zM238.232 12.04l-6.934 8.056-7.29-8.057h-5.474L229.15 23.38v8.5h3.91v-8.5l10.5-11.343zM21.867 0C9.644 0 0 9.81 0 22.034S9.644 43.88 21.867 43.88c12.224 0 21.833-9.62 21.833-21.846S34.09 0 21.867 0zm-.148 37.756v.047c0-.01-.004-.015-.004-.023-.003.01-.003.015-.003.023v-.047C20.503 25.296 6.103 12.8 6.103 12.8c10.052 0 15.55 10.665 15.613 10.783.063-.118 5.556-10.783 15.613-10.783 0 0-14.403 12.495-15.61 24.956z"/></g></symbol><symbol id="icon-next" viewBox="0 0 18.621 17.121"><path d="M18.62 8.56l-8.56 8.56L7.94 15l4.94-4.94H0v-3h12.88L7.94 2.12 10.06 0z"/></symbol><symbol id="icon-play" viewBox="0 0 32 32"><g><path d="M16 0C7.163 0 0 7.163 0 16s7.163 16 16 16 16-7.163 16-16S24.837 0 16 0zm0 29C8.82 29 3 23.18 3 16S8.82 3 16 3s13 5.82 13 13-5.82 13-13 13zM12 8l11 8-11 8z"/></g></symbol><symbol id="icon-previous" viewBox="0 0 18.621 17.121"><path d="M8.56 0l2.122 2.12-4.94 4.94h12.88v3H5.74l4.94 4.94-2.12 2.12L0 8.56z"/></symbol><symbol id="icon-search" viewBox="0 0 25.828 25.829"><path d="M25.828 23l-7.485-7.486c2.573-3.883 2.15-9.164-1.272-12.585C15.118.976 12.56 0 10 0S4.88.977 2.93 2.93c-3.906 3.906-3.906 10.232 0 14.143C4.88 19.025 7.44 20 9.997 20c1.925 0 3.85-.554 5.516-1.658L23 25.83 25.828 23zM5.052 14.954c-2.728-2.733-2.73-7.174 0-9.904C6.372 3.728 8.13 3 10 3s3.626.73 4.95 2.05C16.27 6.375 17 8.13 17 10s-.73 3.625-2.05 4.95C13.625 16.272 11.867 17 9.997 17s-3.626-.728-4.946-2.046z"/></symbol><symbol id="icon-triangle-left" viewBox="0 0 8.063 16.118"><path d="M8.063 0v16.118L0 8.075z"/></symbol><symbol id="icon-triangle-right" viewBox="0 0 8.063 16.118"><path d="M0 0v16.118l8.063-8.043z"/></symbol></svg>