<svg xmlns="http://www.w3.org/2000/svg" width="245" height="44" viewBox="0 0 243.561 43.879" enable-background="new 0 0 243.561 43.879"><g><path d="M72.97 26.954L64.945 12.33l-.126-.226h-4.794L71.31 31.946h3.206L85.24 12.104h-4.472zM94.798 12.135h3.738v19.81h-3.738zM107.598 15.818h9.013v16.128h3.815V15.818h8.867v-3.715h-21.694zM138.457 12.104h3.937V31.91h-3.937zM157.187 12.07h-3.71v19.845h17.727v-3.843h-14.017zM179.346 12.07h3.75v19.81h-3.75zM191.36 15.756h8.89v16.127h3.904V15.756h8.96v-3.72H191.36zM238.232 12.04l-6.934 8.056-7.29-8.057h-5.474L229.15 23.38v8.5h3.91v-8.5l10.5-11.343zM21.867 0C9.644 0 0 9.81 0 22.034S9.644 43.88 21.867 43.88c12.224 0 21.833-9.62 21.833-21.846S34.09 0 21.867 0zm-.148 37.756v.047c0-.01-.004-.015-.004-.023-.003.01-.003.015-.003.023v-.047C20.503 25.296 6.103 12.8 6.103 12.8c10.052 0 15.55 10.665 15.613 10.783.063-.118 5.556-10.783 15.613-10.783 0 0-14.403 12.495-15.61 24.956z"/></g></svg>