<svg xmlns="http://www.w3.org/2000/svg" width="25.828" height="25.829" viewBox="0 0 25.828 25.829"><path d="M25.828 23l-7.485-7.486c2.573-3.883 2.15-9.164-1.272-12.585C15.118.976 12.56 0 10 0S4.88.977 2.93 2.93c-3.906 3.906-3.906 10.232 0 14.143C4.88 19.025 7.44 20 9.997 20c1.925 0 3.85-.554 5.516-1.658L23 25.83 25.828 23zM5.052 14.954c-2.728-2.733-2.73-7.174 0-9.904C6.372 3.728 8.13 3 10 3s3.626.73 4.95 2.05C16.27 6.375 17 8.13 17 10s-.73 3.625-2.05 4.95C13.625 16.272 11.867 17 9.997 17s-3.626-.728-4.946-2.046z"/></svg>